<svg width="60" height="64" viewBox="0 0 60 64" fill="none" xmlns="http://www.w3.org/2000/svg">
<ellipse cx="30" cy="31.9757" rx="30" ry="31.9835" fill="#D9D9D9"/>
<path d="M36.25 20.248C34.5878 20.251 32.9652 20.7886 31.5943 21.7906C30.2234 22.7927 29.168 24.2125 28.5662 25.8644C28.0842 25.1189 27.4395 24.5094 26.6877 24.0882C25.9358 23.667 25.0993 23.4468 24.25 23.4464H22V25.8452C22.0016 27.3291 22.5552 28.7518 23.5394 29.801C24.5237 30.8503 25.8581 31.4406 27.25 31.4423H28V38.6785C26.2773 38.858 24.6672 39.6721 23.4467 40.9806L24.5073 42.1112C25.1346 41.4423 25.8933 40.9302 26.7287 40.6115C27.5641 40.2929 28.4553 40.1757 29.3383 40.2685C30.2212 40.3613 31.0739 40.6616 31.8349 41.148C32.5958 41.6343 33.2462 42.2945 33.739 43.0811L34.9847 42.1911C34.3699 41.2117 33.5592 40.3896 32.6109 39.7839C31.6625 39.1782 30.6001 38.804 29.5 38.6881V31.4423H30.25C32.4372 31.4395 34.5342 30.512 36.0808 28.8631C37.6274 27.2142 38.4974 24.9787 38.5 22.6468V20.248H36.25ZM27.25 29.8431C26.2558 29.8418 25.3027 29.4202 24.5997 28.6707C23.8967 27.9212 23.5012 26.9051 23.5 25.8452V25.0456H24.25C25.2443 25.0466 26.1975 25.4682 26.9006 26.2177C27.6036 26.9672 27.999 27.9835 28 29.0435V29.8431H27.25ZM37 22.6468C36.998 24.5547 36.2862 26.3839 35.0208 27.733C33.7553 29.0821 32.0396 29.841 30.25 29.8431H29.5V29.0435C29.502 27.1356 30.2138 25.3064 31.4792 23.9573C32.7447 22.6082 34.4604 21.8493 36.25 21.8472H37V22.6468Z" fill="#BBBBBB"/>
</svg>
