<svg width="66" height="65" viewBox="0 0 66 65" fill="none" xmlns="http://www.w3.org/2000/svg">
<ellipse cx="32.9562" cy="29" rx="32.8062" ry="29" fill="#FFC529" fill-opacity="0.4"/>
<path d="M24.1998 35.8767C28.0692 28.861 30.0039 25.3531 32.9563 25.3531C35.9087 25.3531 37.8434 28.861 41.7128 35.8767L43.3915 38.9205C47.0368 45.5299 48.8594 48.8346 47.4081 51.2923C45.9569 53.75 42.1829 53.75 34.635 53.75H31.2775C23.7296 53.75 19.9556 53.75 18.5044 51.2923C17.0531 48.8346 18.8758 45.5299 22.521 38.9205L24.1998 35.8767Z" fill="#1E1E1E"/>
<rect x="16.0776" y="14.7588" width="9.64463" height="2.15164" fill="#344E41"/>
<rect x="18.4887" y="14.7588" width="9.64463" height="2.15164" fill="#344E41"/>
<rect x="18.4887" y="10.4551" width="14.4669" height="2.15164" fill="#344E41"/>
<rect x="20.8998" y="8.30371" width="12.0558" height="2.15164" fill="#344E41"/>
<path d="M24.5167 6.15234H30.5446V8.30398H23.3111L24.5167 6.15234Z" fill="#344E41"/>
<path d="M16.0776 13.3246H31.8305V14.7591H16.0776V13.3246Z" fill="#344E41"/>
<path d="M17.2028 12.6074H32.9557V14.0418H17.2028V12.6074Z" fill="#344E41"/>
<rect x="16.0776" y="19.0625" width="9.64463" height="2.15164" fill="#344E41"/>
<rect x="16.0776" y="21.2139" width="9.64463" height="2.15164" fill="#344E41"/>
<rect x="16.0776" y="23.3652" width="7.23347" height="2.15164" fill="#344E41"/>
<rect x="16.0776" y="25.5166" width="4.82232" height="2.15164" fill="#344E41"/>
<rect x="18.4887" y="27.668" width="2.41116" height="2.15164" fill="#344E41"/>
<path d="M16.0776 27.6689H18.4888V29.8206H17.2832L16.0776 27.6689Z" fill="#344E41"/>
<rect x="21.383" y="25.207" width="20.9867" height="4.33771" fill="#44638A"/>
<rect x="27.015" y="12.8125" width="20.9867" height="4.33771" fill="#44638A"/>
<rect x="27.9407" y="9.37109" width="18.2862" height="4.33771" fill="#44638A"/>
<rect x="27.3235" y="6.47852" width="14.6598" height="3.71803" fill="#44638A"/>
<rect x="25.9345" y="16.8066" width="20.9867" height="4.33771" fill="#44638A"/>
<rect x="24.932" y="20.8691" width="20.9867" height="4.33771" fill="#44638A"/>
<rect x="20.688" y="29.5449" width="20.9867" height="4.33771" fill="#44638A"/>
<path d="M23.6582 31.748H41.983V36.0858H24.9313L23.6582 31.748Z" fill="#44638A"/>
<rect x="16.0775" y="14.7588" width="9.64463" height="2.15164" fill="#344E41"/>
<rect x="18.4886" y="14.7588" width="9.64463" height="2.15164" fill="#344E41"/>
<rect x="18.4886" y="10.4551" width="14.4669" height="2.15164" fill="#344E41"/>
<rect x="20.8997" y="8.30371" width="12.0558" height="2.15164" fill="#344E41"/>
<path d="M24.5166 6.15234H30.5445V8.30398H23.311L24.5166 6.15234Z" fill="#344E41"/>
<path d="M16.0775 13.3246H31.8304V14.7591H16.0775V13.3246Z" fill="#344E41"/>
<path d="M17.2027 12.6074H32.9556V14.0418H17.2027V12.6074Z" fill="#344E41"/>
<rect x="16.0775" y="19.0625" width="9.64463" height="2.15164" fill="#344E41"/>
<rect x="16.0775" y="21.2139" width="9.64463" height="2.15164" fill="#344E41"/>
<rect x="16.0775" y="23.3652" width="7.23347" height="2.15164" fill="#344E41"/>
<rect x="16.0775" y="25.5166" width="4.82232" height="2.15164" fill="#344E41"/>
<rect x="18.4886" y="27.668" width="2.41116" height="2.15164" fill="#344E41"/>
<path d="M16.0775 27.6689H18.4887V29.8206H17.2831L16.0775 27.6689Z" fill="#344E41"/>
<rect x="16.0775" y="16.9102" width="9.64463" height="2.15164" fill="#344E41"/>
<rect x="40.1889" y="21.2129" width="9.64463" height="2.15164" fill="#344E41"/>
<rect x="45.0111" y="23.3643" width="4.82232" height="2.15164" fill="#344E41"/>
<path d="M40.1889 29.8193H47.4224L45.0112 34.1226H42.6001L40.1889 29.8193Z" fill="#344E41"/>
<path d="M40.1889 27.668H49.8335L48.628 29.8196H40.1889V27.668Z" fill="#344E41"/>
<path d="M41.3945 10.4541H47.4224V12.6057H40.1889L41.3945 10.4541Z" fill="#344E41"/>
<rect x="42.6007" y="8.30273" width="2.41116" height="2.15164" fill="#344E41"/>
<path d="M38.9839 12.6064H48.6286L49.8341 14.7581H37.7783L38.9839 12.6064Z" fill="#344E41"/>
<rect x="37.7783" y="14.7578" width="12.0558" height="2.15164" fill="#344E41"/>
<rect x="37.7783" y="16.9092" width="12.0558" height="2.15164" fill="#344E41"/>
<rect x="40.1889" y="19.0605" width="9.64463" height="2.15164" fill="#344E41"/>
<rect x="42.6006" y="25.5156" width="7.23347" height="2.15164" fill="#344E41"/>
<path d="M32.9562 4C27.8404 4 22.9341 5.81352 19.3167 9.0416C15.6992 12.2697 13.667 16.6479 13.667 21.2131C13.667 25.7783 15.6992 30.1565 19.3167 33.3846C22.9341 36.6127 27.8404 38.4262 32.9562 38.4262C38.0721 38.4262 42.9784 36.6127 46.5958 33.3846C50.2132 30.1565 52.2455 25.7783 52.2455 21.2131C52.2455 16.6479 50.2132 12.2697 46.5958 9.0416C42.9784 5.81352 38.0721 4 32.9562 4ZM29.4979 6.79098C29.7184 7.17213 29.9388 7.52869 30.1731 7.89754C31.2202 9.56967 32.1433 11.0082 31.5509 12.9385C31.3167 13.7746 30.1731 14.168 28.6024 14.6598C27.4756 14.8973 26.451 15.4229 25.6539 16.1721C25.1144 16.8871 24.7784 17.7087 24.6752 18.5657C24.5719 19.4227 24.7045 20.2892 25.0614 21.0902C25.3232 22 25.4748 22.5656 25.1992 22.9344C24.9236 23.3033 24.9925 23.1557 24.2623 23.2418C23.4408 23.2878 22.6418 23.4998 21.9257 23.862C21.2097 24.2241 20.5952 24.7267 20.1289 25.332C19.3339 26.3615 18.8889 27.574 18.8475 28.8238C17.268 26.5351 16.4287 23.901 16.4226 21.2131C16.424 17.837 17.7229 14.5635 20.1025 11.9388C22.482 9.31418 25.7984 7.49715 29.4979 6.79098ZM21.8098 32.082C21.5894 30.6926 21.2449 28.1844 22.3471 26.8689C22.5986 26.519 22.9454 26.2318 23.355 26.034C23.7646 25.8362 24.2237 25.7343 24.6894 25.7377C25.2368 25.708 25.7694 25.5675 26.2469 25.3268C26.7243 25.0861 27.1341 24.7515 27.445 24.3484C27.7964 23.7652 27.9985 23.1198 28.0366 22.4586C28.0747 21.7974 27.948 21.1368 27.6655 20.5246C27.3072 19.2951 27.1143 18.4713 27.8033 17.6475C28.3281 17.3553 28.8994 17.1356 29.4979 16.9959C31.2478 16.4672 33.6314 15.7664 34.2376 13.5041C35.0092 10.6393 33.6865 8.58607 32.5153 6.68033L32.4465 6.45902H32.9562C36.0742 6.45902 39.1288 7.25328 41.7604 8.7459C40.3115 10.7472 38.5692 12.5666 36.5799 14.1557C34.6785 15.6926 36.0701 17.4631 36.9932 18.6311C37.4968 19.1129 37.8868 19.68 38.1401 20.2989C38.3933 20.9177 38.5046 21.5756 38.4675 22.2336C38.3681 22.5764 38.3691 22.9362 38.4704 23.2786C38.5717 23.6209 38.77 23.9343 39.0461 24.1885C39.4636 24.4399 39.9465 24.5911 40.4484 24.6277C40.9503 24.6643 41.4543 24.585 41.912 24.3975C42.2426 24.3139 42.5774 24.2525 42.9178 24.2131C43.0693 24.6803 42.78 25.0615 41.54 26.082C40.2999 27.1025 38.6603 28.4795 39.1564 30.6803C39.3321 31.3133 39.6563 31.9058 40.1076 32.4186C40.5588 32.9315 41.1269 33.3532 41.7742 33.6557C38.7184 35.3965 35.1031 36.1861 31.4918 35.9015C27.8805 35.6168 24.4763 34.2738 21.8098 32.082ZM44.1302 32.082L43.5929 31.7746C42.6284 31.2582 42.036 30.8893 41.8844 30.2131C41.7329 29.5369 42.2289 28.9221 43.4551 27.9016C44.6814 26.8811 46.3898 25.4426 45.4805 23.2664C44.64 21.2869 42.3253 21.791 41.2782 22.0369C41.2456 20.2775 40.5298 18.5827 39.2528 17.2418C38.9078 16.8725 38.629 16.4577 38.4261 16.0123C40.5393 14.3239 42.3925 12.3932 43.9373 10.2705C45.66 11.6378 47.0417 13.3127 47.9929 15.1868C48.9442 17.0608 49.4438 19.0923 49.4593 21.1496C49.4749 23.2069 49.0062 25.2441 48.0834 27.1295C47.1607 29.0149 45.8045 30.7063 44.1027 32.0943L44.1302 32.082Z" fill="#1E1E1E"/>
</svg>
