<svg width="18" height="20" viewBox="0 0 18 20" fill="none" xmlns="http://www.w3.org/2000/svg">
<path d="M10.8487 2.18638C11.9518 2.57064 12.908 3.28863 13.5846 4.24078C14.2613 5.19292 14.6249 6.33203 14.625 7.50013V12.1251L17.2162 14.5439C17.3077 14.6295 17.3713 14.7406 17.3988 14.8629C17.4263 14.9851 17.4165 15.1128 17.3705 15.2293C17.3246 15.3459 17.2446 15.446 17.1411 15.5165C17.0376 15.5871 16.9153 15.6249 16.79 15.6251H1.21122C1.08555 15.6255 0.962705 15.5879 0.858704 15.5174C0.754703 15.4468 0.674382 15.3466 0.628223 15.2297C0.582064 15.1128 0.572211 14.9847 0.59995 14.8622C0.62769 14.7396 0.691733 14.6282 0.783721 14.5426L3.37497 12.1251V7.50013C3.37508 6.33203 3.73868 5.19292 4.41532 4.24078C5.09197 3.28863 6.04814 2.57064 7.15122 2.18638C7.2251 1.7495 7.45131 1.35291 7.78972 1.06692C8.12814 0.78093 8.5569 0.624023 8.99997 0.624023C9.44305 0.624023 9.8718 0.78093 10.2102 1.06692C10.5486 1.35291 10.7748 1.7495 10.8487 2.18638Z" fill="#787878" stroke="#1E1E1E" stroke-linecap="round" stroke-linejoin="round"/>
<path d="M7.2312 18.125C7.36004 18.4912 7.59939 18.8085 7.91621 19.0329C8.23304 19.2573 8.61171 19.3778 8.99995 19.3778C9.3882 19.3778 9.76687 19.2573 10.0837 19.0329C10.4005 18.8085 10.6399 18.4912 10.7687 18.125H7.2312Z" fill="#787878" stroke="#1E1E1E"/>
</svg>
