<svg width="115" height="95" viewBox="0 0 115 95" fill="none" xmlns="http://www.w3.org/2000/svg">
<path d="M31.7664 77.3605L21.7967 84.6324L24.2742 87.9991L22.2867 89.4487L15.5773 80.3313L17.5648 78.8817L20.0423 82.2483L30.012 74.9765L31.7664 77.3605Z" fill="white"/>
<path d="M26.9517 69.3845C27.7133 71.6816 26.4698 73.206 23.7908 74.0863L17.1596 76.2654L16.2344 73.4748L22.5236 71.4081C24.1576 70.8711 24.5766 70.2282 24.2304 69.1841C23.9409 68.3108 23.3721 67.8662 22.1829 67.457L15.0197 69.8109L14.1008 67.0392L24.7221 63.549L25.4773 65.8271L24.0265 66.5354L24.0454 66.5923C25.4368 67.1666 26.4734 67.9418 26.9517 69.3845Z" fill="white"/>
<path d="M23.4974 61.971L12.3346 61.3521L12.4675 58.9759L13.9586 58.8182L13.962 58.7582C13.0559 57.7666 12.3152 56.6839 12.3957 55.2462C12.4861 53.6287 13.2375 52.7289 14.5047 52.2784C13.5044 51.1813 12.6861 50.0543 12.7676 48.5966C12.9005 46.2203 14.6382 45.2349 17.4339 45.3899L24.4032 45.7763L24.2391 48.7117L17.6492 48.3464C15.8919 48.249 15.286 48.6961 15.2256 49.7744C15.1899 50.4134 15.5502 51.1345 16.3442 51.9797L24.0324 52.4059L23.8682 55.3414L17.2784 54.976C15.5211 54.8786 14.914 55.3457 14.8537 56.424C14.8191 57.0431 15.1772 57.804 15.9734 58.6094L23.6616 59.0356L23.4974 61.971Z" fill="white"/>
<path d="M30.0829 39.9864C29.6645 40.8946 28.7395 41.6595 27.5078 42.0865L27.4744 42.1591L28.4473 42.8673L27.4848 44.9562L12.9852 38.3347L14.2155 35.6644L17.8723 37.3344L19.4496 38.1646C19.1167 37.0232 19.0858 35.7998 19.5544 34.7826C20.701 32.294 23.4332 31.7169 26.5624 33.1459C30.0736 34.7493 31.1123 37.7522 30.0829 39.9864ZM27.6138 39.5624C28.1745 38.3454 27.5545 36.9189 25.3532 35.9137C23.3884 35.0164 22.0389 35.1256 21.3861 36.5425C21.0764 37.2146 21.1291 38.0082 21.529 39.0043L26.0226 41.0564C26.8711 40.6964 27.3627 40.1073 27.6138 39.5624Z" fill="white"/>
<path d="M34.7177 33.7495C33.4009 35.3337 31.9193 35.0199 30.3139 33.6973L20.4348 25.5583L22.3141 23.2974L32.2858 31.5127C32.8261 31.9578 33.1877 31.867 33.3666 31.6517C33.4306 31.5748 33.4817 31.5132 33.5787 31.334L35.4913 32.4433C35.3666 32.7811 35.1652 33.2112 34.7177 33.7495Z" fill="white"/>
<path d="M41.2794 28.3463C38.7327 30.1832 35.4828 29.864 33.3058 26.8723C31.164 23.9291 31.9223 20.6203 34.0634 19.076C36.5777 17.2625 39.1771 18.1495 41.0011 20.656C41.3306 21.1088 41.5879 21.5644 41.704 21.8259L36.0916 25.874C37.3851 27.2097 38.9115 27.2677 40.2578 26.2967C40.9877 25.7702 41.4718 25.0758 41.8427 24.1918L43.7084 25.0901C43.2634 26.3481 42.3986 27.539 41.2794 28.3463ZM34.9059 24.3126L38.6205 21.6333C37.7261 20.4043 36.6098 20.0259 35.4419 20.8683C34.4848 21.5585 34.1356 22.8461 34.9059 24.3126Z" fill="white"/>
<path d="M45.5915 25.8346L41.669 15.3653L43.9002 14.5367L44.8198 16.3073L44.8761 16.2864C45.1068 14.622 45.9768 13.4669 47.0642 13.063C47.6267 12.8542 47.9922 12.8038 48.3671 12.8352L48.7825 15.3691C48.3725 15.4147 48.0632 15.4442 47.6132 15.6113C46.807 15.9107 46.0238 16.8416 46.011 18.5744L48.3476 24.8111L45.5915 25.8346Z" fill="white"/>
<path d="M58.7938 23.0624L60.3443 8.34388L65.1979 8.85066C68.2215 9.16635 70.4346 10.3023 70.1455 13.0471C70.003 14.3997 69.1224 15.6952 67.8211 16.0218L67.8127 16.1014C69.3443 16.6434 70.3985 17.8997 70.1911 19.8688C69.8789 22.8324 67.2677 23.9472 64.0453 23.6108L58.7938 23.0624ZM62.6576 14.6381L64.3683 14.8168C66.2382 15.012 67.1114 14.3591 67.2371 13.1657C67.3733 11.8729 66.5703 11.2863 64.7999 11.1015L63.0494 10.9187L62.6576 14.6381ZM61.9767 21.1024L64.0255 21.3163C66.0147 21.524 67.1842 20.9222 67.3434 19.4106C67.4943 17.9785 66.505 17.2518 64.476 17.04L62.4271 16.826L61.9767 21.1024Z" fill="white"/>
<path d="M73.4596 26.4259L81.2167 22.4941L82.0501 14.3706L84.7595 16.2193L84.2468 19.5739C84.1473 20.3534 84.0033 21.1269 83.8451 22.1326L83.9112 22.1777C84.7302 21.6228 85.3863 21.1989 86.0476 20.8027L88.9392 19.0713L91.5164 20.8298L84.1441 24.661L83.3554 33.1782L80.646 31.3295L81.1347 27.6922C81.2518 26.852 81.3854 26.0231 81.5436 25.0173L81.4775 24.9722C80.6585 25.5271 79.9302 25.9502 79.2184 26.3845L76.0533 28.1957L73.4596 26.4259Z" fill="white"/>
<path d="M97.3994 31.6733L99.9436 37.1954L98.0152 38.076L96.5757 34.9517L90.6994 37.6352L89.5947 35.2375L97.3994 31.6733ZM100.387 38.1581L102.906 43.6257L100.978 44.5063L99.5551 41.4183L93.6789 44.1019L92.5825 41.7223L100.387 38.1581ZM93.4012 41.3484L95.9538 46.8887L94.0254 47.7693L91.4728 42.2291L93.4012 41.3484ZM90.468 34.8387L90.9283 35.8378C91.7652 37.6542 92.3958 38.9273 93.4095 40.2673L91.5451 41.3825C90.4797 39.9782 89.824 38.6506 88.9453 36.7433L88.4849 35.7443L90.468 34.8387Z" fill="white"/>
<path d="M104.332 53.7247L104.405 59.8043L102.285 59.8298L102.244 56.39L95.7842 56.4678L95.7521 53.828L104.332 53.7247ZM104.418 60.8642L104.491 66.8838L102.371 66.9093L102.33 63.5095L95.8706 63.5873L95.8388 60.9675L104.418 60.8642ZM96.7388 60.9566L96.8128 67.0562L94.693 67.0817L94.6189 60.9821L96.7388 60.9566ZM96.7121 53.8164L96.7254 54.9164C96.7497 56.9162 96.807 58.3356 97.1868 59.9712L95.0299 60.2371C94.6291 58.5218 94.5711 57.0424 94.5456 54.9426L94.5322 53.8427L96.7121 53.8164Z" fill="white"/>
<path d="M100.67 77.3442L99.877 79.1804L98.6818 78.6691C95.5559 77.3316 92.9997 75.1285 92.8961 71.8864L95.2479 71.2829C95.276 74.1446 97.2679 75.8888 99.4744 76.8328L100.67 77.3442ZM100.376 78.0236L99.6154 79.7864L98.4019 79.2671C96.324 78.3782 93.6324 78.0532 91.423 79.7401L90.044 77.8883C92.612 75.724 96.2391 76.2535 99.1628 77.5044L100.376 78.0236ZM97.9985 83.5323L97.2375 85.2951L96.024 84.7758C93.0635 83.5092 90.2078 81.2432 90.044 77.8883L92.3504 77.5917C92.6258 80.3852 94.6703 82.1083 96.7849 83.0131L97.9985 83.5323ZM97.7369 84.1382L96.9363 85.9928L95.7411 85.4815C93.4795 84.5138 90.9007 84.2806 88.8222 86.2193L87.6093 84.1341C90.0407 81.9331 93.3606 82.2659 96.5417 83.6269L97.7369 84.1382Z" fill="white"/>
</svg>
