<svg width="38" height="61" viewBox="0 0 38 61" fill="none" xmlns="http://www.w3.org/2000/svg">
<path d="M10.0114 34.4367C13.9205 26.4186 15.8751 22.4095 19 22.4095C22.1249 22.4095 24.0795 26.4186 27.9886 34.4367L28.4425 35.3677C31.5895 41.8225 33.163 45.0499 31.6942 47.3999C30.2255 49.75 26.635 49.75 19.4539 49.75H18.5461C11.365 49.75 7.77452 49.75 6.30577 47.3999C4.83703 45.0499 6.41051 41.8225 9.55747 35.3677L10.0114 34.4367Z" fill="#1E1E1E"/>
<rect x="4.07959" y="10.7583" width="8.52564" height="2.15164" fill="#344E41"/>
<rect x="6.21094" y="10.7583" width="8.52564" height="2.15164" fill="#344E41"/>
<rect x="6.21094" y="6.45459" width="12.7885" height="2.15164" fill="#344E41"/>
<rect x="8.34229" y="4.30322" width="10.6571" height="2.15164" fill="#344E41"/>
<path d="M11.5398 2.15186H16.8684V4.30349H10.4741L11.5398 2.15186Z" fill="#344E41"/>
<path d="M4.07959 9.32415H18.0048V10.7586H4.07959V9.32415Z" fill="#344E41"/>
<path d="M5.07425 8.60693H18.9995V10.0414H5.07425V8.60693Z" fill="#344E41"/>
<rect x="4.07959" y="15.0615" width="8.52564" height="2.15164" fill="#344E41"/>
<rect x="4.07959" y="17.2129" width="8.52564" height="2.15164" fill="#344E41"/>
<rect x="4.07959" y="19.3647" width="6.39423" height="2.15164" fill="#344E41"/>
<rect x="4.07959" y="21.5161" width="4.26282" height="2.15164" fill="#344E41"/>
<rect x="6.21094" y="23.668" width="2.13141" height="2.15164" fill="#344E41"/>
<path d="M4.07959 23.668H6.211V25.8196H5.1453L4.07959 23.668Z" fill="#344E41"/>
<rect x="8.76953" y="21.207" width="18.5518" height="4.33771" fill="#44638A"/>
<rect x="13.748" y="8.81299" width="18.5518" height="4.33771" fill="#44638A"/>
<rect x="14.5664" y="5.37061" width="16.1646" height="4.33771" fill="#44638A"/>
<rect x="14.021" y="2.47852" width="12.959" height="3.71803" fill="#44638A"/>
<rect x="12.793" y="12.8071" width="18.5518" height="4.33771" fill="#44638A"/>
<rect x="11.9067" y="16.8687" width="18.5518" height="4.33771" fill="#44638A"/>
<rect x="8.15527" y="25.5449" width="18.5518" height="4.33771" fill="#44638A"/>
<path d="M10.7808 27.7476H26.9795V32.0853H11.9061L10.7808 27.7476Z" fill="#44638A"/>
<rect x="4.07959" y="10.7583" width="8.52564" height="2.15164" fill="#344E41"/>
<rect x="6.21094" y="10.7583" width="8.52564" height="2.15164" fill="#344E41"/>
<rect x="6.21094" y="6.45459" width="12.7885" height="2.15164" fill="#344E41"/>
<rect x="8.34229" y="4.30322" width="10.6571" height="2.15164" fill="#344E41"/>
<path d="M11.5398 2.15186H16.8684V4.30349H10.4741L11.5398 2.15186Z" fill="#344E41"/>
<path d="M4.07959 9.32415H18.0048V10.7586H4.07959V9.32415Z" fill="#344E41"/>
<path d="M5.07425 8.60693H18.9995V10.0414H5.07425V8.60693Z" fill="#344E41"/>
<rect x="4.07959" y="15.0615" width="8.52564" height="2.15164" fill="#344E41"/>
<rect x="4.07959" y="17.2129" width="8.52564" height="2.15164" fill="#344E41"/>
<rect x="4.07959" y="19.3647" width="6.39423" height="2.15164" fill="#344E41"/>
<rect x="4.07959" y="21.5161" width="4.26282" height="2.15164" fill="#344E41"/>
<rect x="6.21094" y="23.668" width="2.13141" height="2.15164" fill="#344E41"/>
<path d="M4.07959 23.668H6.211V25.8196H5.1453L4.07959 23.668Z" fill="#344E41"/>
<rect x="4.07959" y="12.9102" width="8.52564" height="2.15164" fill="#344E41"/>
<rect x="25.3936" y="17.2129" width="8.52564" height="2.15164" fill="#344E41"/>
<rect x="29.6562" y="19.3647" width="4.26282" height="2.15164" fill="#344E41"/>
<path d="M25.3936 25.8198H31.7878L29.6564 30.1231H27.525L25.3936 25.8198Z" fill="#344E41"/>
<path d="M25.3936 23.668H33.9192L32.8535 25.8196H25.3936V23.668Z" fill="#344E41"/>
<path d="M26.4593 6.45459H31.7878V8.60623H25.3936L26.4593 6.45459Z" fill="#344E41"/>
<rect x="27.5254" y="4.30322" width="2.13141" height="2.15164" fill="#344E41"/>
<path d="M24.3284 8.60693H32.854L33.9197 10.7586H23.2627L24.3284 8.60693Z" fill="#344E41"/>
<rect x="23.2627" y="10.7583" width="10.6571" height="2.15164" fill="#344E41"/>
<rect x="23.2627" y="12.9102" width="10.6571" height="2.15164" fill="#344E41"/>
<rect x="25.3936" y="15.0615" width="8.52564" height="2.15164" fill="#344E41"/>
<rect x="27.5254" y="21.5161" width="6.39423" height="2.15164" fill="#344E41"/>
<path d="M19 0C14.4777 0 10.1407 1.81352 6.94293 5.0416C3.7452 8.26969 1.94873 12.6479 1.94873 17.2131C1.94873 21.7783 3.7452 26.1565 6.94293 29.3846C10.1407 32.6127 14.4777 34.4262 19 34.4262C23.5223 34.4262 27.8594 32.6127 31.0571 29.3846C34.2548 26.1565 36.0513 21.7783 36.0513 17.2131C36.0513 12.6479 34.2548 8.26969 31.0571 5.0416C27.8594 1.81352 23.5223 0 19 0ZM15.943 2.79098C16.1378 3.17213 16.3327 3.52869 16.5398 3.89754C17.4654 5.56967 18.2814 7.0082 17.7577 8.93853C17.5507 9.77459 16.5398 10.168 15.1513 10.6598C14.1553 10.8973 13.2495 11.4229 12.5449 12.1721C12.068 12.8871 11.771 13.7087 11.6797 14.5657C11.5885 15.4227 11.7057 16.2892 12.0212 17.0902C12.2526 18 12.3866 18.5656 12.143 18.9344C11.8994 19.3033 11.9603 19.1557 11.3148 19.2418C10.5886 19.2878 9.88231 19.4998 9.2493 19.862C8.61629 20.2241 8.07313 20.7267 7.66091 21.332C6.95813 22.3615 6.56481 23.574 6.52822 24.8238C5.13193 22.5351 4.39004 19.901 4.38463 17.2131C4.3859 13.837 5.53408 10.5635 7.63757 7.93885C9.74106 5.31418 12.6726 3.49715 15.943 2.79098ZM9.14681 28.082C8.95194 26.6926 8.64745 24.1844 9.62181 22.8689C9.84411 22.519 10.1506 22.2318 10.5127 22.034C10.8748 21.8362 11.2806 21.7343 11.6923 21.7377C12.1762 21.708 12.647 21.5675 13.0691 21.3268C13.4911 21.0861 13.8533 20.7515 14.1282 20.3484C14.4389 19.7652 14.6175 19.1198 14.6512 18.4586C14.6849 17.7974 14.5728 17.1368 14.3231 16.5246C14.0064 15.2951 13.8359 14.4713 14.4449 13.6475C14.9088 13.3553 15.4139 13.1356 15.943 12.9959C17.4898 12.4672 19.5968 11.7664 20.1327 9.5041C20.8148 6.63934 19.6455 4.58607 18.6103 2.68033L18.5494 2.45902H19C21.7562 2.45902 24.4564 3.25328 26.7827 4.7459C25.5019 6.74716 23.9617 8.56656 22.2032 10.1557C20.5224 11.6926 21.7526 13.4631 22.5686 14.6311C23.0138 15.1129 23.3585 15.68 23.5824 16.2989C23.8063 16.9177 23.9047 17.5756 23.8718 18.2336C23.7839 18.5764 23.7848 18.9362 23.8744 19.2786C23.964 19.6209 24.1392 19.9343 24.3833 20.1885C24.7524 20.4399 25.1792 20.5911 25.6229 20.6277C26.0666 20.6643 26.5121 20.585 26.9167 20.3975C27.209 20.3139 27.5049 20.2525 27.8058 20.2131C27.9398 20.6803 27.684 21.0615 26.5878 22.082C25.4917 23.1025 24.0423 24.4795 24.4808 26.6803C24.6361 27.3133 24.9227 27.9058 25.3216 28.4186C25.7205 28.9315 26.2227 29.3532 26.7949 29.6557C24.0937 31.3965 20.8978 32.1861 17.7055 31.9015C14.5132 31.6168 11.5039 30.2738 9.14681 28.082ZM28.8776 28.082L28.4026 27.7746C27.55 27.2582 27.0263 26.8893 26.8923 26.2131C26.7583 25.5369 27.1968 24.9221 28.2808 23.9016C29.3648 22.8811 30.875 21.4426 30.0712 19.2664C29.3282 17.2869 27.2821 17.791 26.3564 18.0369C26.3276 16.2775 25.6948 14.5827 24.566 13.2418C24.2611 12.8725 24.0146 12.4577 23.8353 12.0123C25.7032 10.3239 27.3414 8.3932 28.7071 6.27049C30.2299 7.63779 31.4513 9.31269 32.2921 11.1868C33.133 13.0608 33.5746 15.0923 33.5884 17.1496C33.6022 19.2069 33.1878 21.2441 32.3721 23.1295C31.5564 25.0149 30.3576 26.7063 28.8532 28.0943L28.8776 28.082Z" fill="#1E1E1E"/>
</svg>
