<svg width="17" height="15" viewBox="0 0 17 15" fill="none" xmlns="http://www.w3.org/2000/svg">
<path d="M0.877729 6.87497C0.869001 6.7805 0.881263 6.68536 0.913739 6.59558C0.946214 6.5058 0.998192 6.42334 1.06638 6.35344C1.13456 6.28354 1.21746 6.22772 1.30982 6.18953C1.40217 6.15134 1.50197 6.1316 1.60287 6.13158H2.99309C3.18618 6.13158 3.37136 6.20367 3.5079 6.33198C3.64444 6.46029 3.72114 6.63433 3.72114 6.81579V13.3158C3.72114 13.4973 3.64444 13.6713 3.5079 13.7996C3.37136 13.9279 3.18618 14 2.99309 14H2.20461C2.02239 14 1.84677 13.9359 1.71245 13.8201C1.57813 13.7044 1.49486 13.5456 1.4791 13.375L0.877729 6.87497ZM5.9053 6.60197C5.9053 6.31597 6.0946 6.06008 6.36944 5.93829C6.96972 5.67213 7.99227 5.13742 8.45349 4.41455C9.04795 3.48266 9.16007 1.79916 9.17827 1.4136C9.18081 1.35955 9.17936 1.3055 9.187 1.25213C9.28566 0.583998 10.6577 1.36434 11.1837 2.1895C11.4695 2.63697 11.5059 3.22505 11.476 3.6845C11.4436 4.17576 11.2904 4.65026 11.14 5.12168L10.8197 6.12645H14.7719C14.8844 6.12644 14.9953 6.15093 15.0961 6.19799C15.1968 6.24505 15.2845 6.31341 15.3524 6.3977C15.4203 6.48199 15.4665 6.57991 15.4874 6.68379C15.5082 6.78767 15.5032 6.89468 15.4727 6.99642L13.5178 13.5019C13.4747 13.6454 13.3828 13.7717 13.2563 13.8616C13.1297 13.9515 12.9754 14.0001 12.8167 14H6.63336C6.44026 14 6.25508 13.9279 6.11854 13.7996C5.98201 13.6713 5.9053 13.4973 5.9053 13.3158V6.60197Z" fill="#A3B18A" stroke="#A3B18A" stroke-width="1.5" stroke-linecap="round" stroke-linejoin="round"/>
</svg>
