<svg width="16" height="11" viewBox="0 0 16 11" fill="none" xmlns="http://www.w3.org/2000/svg">
<path d="M14.1875 0.34375H1.8125C1.51413 0.34375 1.22798 0.442522 1.017 0.618337C0.806026 0.794153 0.6875 1.03261 0.6875 1.28125V9.71875C0.6875 9.96739 0.806026 10.2058 1.017 10.3817C1.22798 10.5575 1.51413 10.6562 1.8125 10.6562H14.1875C14.4859 10.6562 14.772 10.5575 14.983 10.3817C15.194 10.2058 15.3125 9.96739 15.3125 9.71875V1.28125C15.3125 1.03261 15.194 0.794153 14.983 0.618337C14.772 0.442522 14.4859 0.34375 14.1875 0.34375ZM14.1875 1.28125V7.30176L12.3545 5.77481C12.25 5.68773 12.126 5.61865 11.9894 5.57152C11.8529 5.5244 11.7066 5.50014 11.5589 5.50014C11.4111 5.50014 11.2648 5.5244 11.1283 5.57152C10.9918 5.61865 10.8678 5.68773 10.7633 5.77481L9.35703 6.94668L6.26328 4.36856C6.05232 4.19287 5.76629 4.09418 5.46805 4.09418C5.16981 4.09418 4.88377 4.19287 4.67281 4.36856L1.8125 6.75215V1.28125H14.1875ZM1.8125 8.07812L5.46875 5.03125L11.0938 9.71875H1.8125V8.07812ZM14.1875 9.71875H12.6849L10.1537 7.60938L11.5599 6.4375L14.1875 8.62774V9.71875ZM9.125 3.85938C9.125 3.72031 9.17449 3.58437 9.2672 3.46874C9.35991 3.35311 9.49169 3.26299 9.64586 3.20977C9.80004 3.15655 9.96969 3.14263 10.1334 3.16976C10.297 3.19689 10.4474 3.26386 10.5654 3.36219C10.6834 3.46052 10.7637 3.58581 10.7963 3.7222C10.8288 3.85859 10.8121 3.99997 10.7483 4.12845C10.6844 4.25693 10.5763 4.36674 10.4375 4.444C10.2988 4.52126 10.1356 4.5625 9.96875 4.5625C9.74497 4.5625 9.53036 4.48842 9.37213 4.35656C9.21389 4.2247 9.125 4.04586 9.125 3.85938Z" fill="#344E41"/>
</svg>
