<svg width="23" height="40" viewBox="0 0 23 40" fill="none" xmlns="http://www.w3.org/2000/svg">
<path d="M5.87376 19.9877L21.7167 35.4709C22.2556 35.9975 22.5164 36.6211 22.4992 37.3415C22.482 38.062 22.2032 38.6848 21.6629 39.21C21.1225 39.7353 20.4845 39.9986 19.7488 40C19.013 40.0014 18.3757 39.7381 17.8368 39.21L1.2933 22.9896C0.862204 22.5683 0.538879 22.0943 0.323328 21.5677C0.107779 21.041 -1.90735e-06 20.5144 -1.90735e-06 19.9877C-1.90735e-06 19.4611 0.107779 18.9345 0.323328 18.4078C0.538879 17.8812 0.862204 17.4072 1.2933 16.9859L17.8907 0.765461C18.4296 0.238823 19.0583 -0.0160713 19.7768 0.000782013C20.4953 0.0176353 21.124 0.290085 21.6629 0.818127C22.2017 1.34617 22.4712 1.96971 22.4712 2.68874C22.4712 3.40778 22.2017 4.03062 21.6629 4.55725L5.87376 19.9877Z" fill="white" fill-opacity="0.85"/>
</svg>
