<svg width="17" height="14" viewBox="0 0 17 14" fill="none" xmlns="http://www.w3.org/2000/svg">
<path d="M0.875 1.89307C0.875 0.927067 1.757 0.143066 2.84375 0.143066H14.6562C15.743 0.143066 16.625 0.927067 16.625 1.89307V9.39307C16.625 9.8572 16.4176 10.3023 16.0484 10.6305C15.6792 10.9587 15.1784 11.1431 14.6562 11.1431H9.9425L7.04787 13.7161C6.81843 13.9192 6.52646 14.0575 6.20876 14.1134C5.89106 14.1693 5.56185 14.1403 5.26263 14.0302C4.96341 13.92 4.70757 13.7336 4.52736 13.4944C4.34716 13.2552 4.25065 12.9739 4.25 12.6861V11.1431H2.84375C2.32161 11.1431 1.82085 10.9587 1.45163 10.6305C1.08242 10.3023 0.875 9.8572 0.875 9.39307V1.89307ZM2.84375 1.64307C2.76916 1.64307 2.69762 1.66941 2.64488 1.71629C2.59213 1.76317 2.5625 1.82676 2.5625 1.89307V9.39307C2.5625 9.53107 2.6885 9.64307 2.84375 9.64307H5.09375C5.31753 9.64307 5.53214 9.72209 5.69037 9.86274C5.84861 10.0034 5.9375 10.1942 5.9375 10.3931V12.5831L8.9975 9.86307C9.07574 9.79336 9.16867 9.73805 9.27098 9.7003C9.37329 9.66255 9.48298 9.6431 9.59375 9.64307H14.6562C14.7308 9.64307 14.8024 9.61673 14.8551 9.56984C14.9079 9.52296 14.9375 9.45937 14.9375 9.39307V1.89307C14.9375 1.82676 14.9079 1.76317 14.8551 1.71629C14.8024 1.66941 14.7308 1.64307 14.6562 1.64307H2.84375Z" fill="#666666"/>
</svg>
