<svg width="22" height="5" viewBox="0 0 22 5" fill="none" xmlns="http://www.w3.org/2000/svg">
<path d="M5.20312 2.49984C5.20312 3.05237 4.95619 3.58227 4.51666 3.97298C4.07712 4.36368 3.48098 4.58317 2.85938 4.58317C2.23777 4.58317 1.64163 4.36368 1.20209 3.97298C0.762555 3.58227 0.515625 3.05237 0.515625 2.49984C0.515625 1.9473 0.762555 1.4174 1.20209 1.0267C1.64163 0.635998 2.23777 0.416504 2.85938 0.416504C3.48098 0.416504 4.07712 0.635998 4.51666 1.0267C4.95619 1.4174 5.20312 1.9473 5.20312 2.49984ZM13.4062 2.49984C13.4062 3.05237 13.1593 3.58227 12.7198 3.97298C12.2802 4.36368 11.6841 4.58317 11.0625 4.58317C10.4409 4.58317 9.84476 4.36368 9.40522 3.97298C8.96568 3.58227 8.71875 3.05237 8.71875 2.49984C8.71875 1.9473 8.96568 1.4174 9.40522 1.0267C9.84476 0.635998 10.4409 0.416504 11.0625 0.416504C11.6841 0.416504 12.2802 0.635998 12.7198 1.0267C13.1593 1.4174 13.4063 1.9473 13.4062 2.49984ZM21.6094 2.49984C21.6094 3.05237 21.3624 3.58227 20.9229 3.97298C20.4834 4.36368 19.8872 4.58317 19.2656 4.58317C18.644 4.58317 18.0479 4.36368 17.6083 3.97298C17.1688 3.58227 16.9219 3.05237 16.9219 2.49984C16.9219 1.9473 17.1688 1.4174 17.6083 1.0267C18.0479 0.635998 18.644 0.416504 19.2656 0.416504C19.8872 0.416504 20.4834 0.635998 20.9229 1.0267C21.3624 1.4174 21.6094 1.9473 21.6094 2.49984Z" fill="#344E41"/>
</svg>
