<svg width="14" height="14" viewBox="0 0 14 14" fill="none" xmlns="http://www.w3.org/2000/svg">
<path d="M13.6158 5.39754C13.7376 5.50581 13.8342 5.63435 13.9001 5.77581C13.9661 5.91727 14 6.06889 14 6.22201C14 6.37513 13.9661 6.52675 13.9001 6.66821C13.8342 6.80967 13.7376 6.93821 13.6158 7.04648C13.494 7.15475 13.3493 7.24063 13.1902 7.29923C13.031 7.35782 12.8604 7.38798 12.6882 7.38798C12.5159 7.38798 12.3453 7.35782 12.1861 7.29923C12.027 7.24063 11.8824 7.15475 11.7606 7.04648L8.31265 3.9835V12.8333C8.31265 13.1427 8.17436 13.4395 7.92818 13.6583C7.68201 13.8771 7.34814 14 7 14C6.65186 14 6.31798 13.8771 6.07181 13.6583C5.82564 13.4395 5.68735 13.1427 5.68735 12.8333V3.9835L2.23944 7.04648C2.11763 7.15475 1.97301 7.24063 1.81385 7.29923C1.65469 7.35782 1.48411 7.38798 1.31184 7.38798C1.13956 7.38798 0.968978 7.35782 0.809818 7.29923C0.650659 7.24063 0.506043 7.15475 0.384228 7.04648C0.262412 6.93821 0.165784 6.80967 0.0998579 6.66821C0.033932 6.52675 -1.28353e-09 6.37513 0 6.22201C1.28353e-09 6.06889 0.033932 5.91727 0.0998579 5.77581C0.165784 5.63435 0.262412 5.50581 0.384228 5.39754L6.07239 0.341849C6.19414 0.23348 6.33874 0.147508 6.49791 0.0888501C6.65708 0.0301924 6.82769 0 7 0C7.17231 0 7.34293 0.0301924 7.50209 0.0888501C7.66126 0.147508 7.80585 0.23348 7.92761 0.341849L13.6158 5.39754Z" fill="#344E41"/>
</svg>
