<svg width="18" height="11" viewBox="0 0 18 11" fill="none" xmlns="http://www.w3.org/2000/svg">
<path d="M17.5765 5.60707C17.5519 5.5577 16.9563 4.38332 15.6323 3.20645C13.8682 1.63832 11.64 0.80957 9.18749 0.80957C6.73499 0.80957 4.50679 1.63832 2.74265 3.20645C1.41867 4.38332 0.820306 5.55957 0.798509 5.60707C0.766526 5.67102 0.75 5.74022 0.75 5.81019C0.75 5.88017 0.766526 5.94938 0.798509 6.01332C0.823118 6.0627 1.41867 7.23645 2.74265 8.41332C4.50679 9.98082 6.73499 10.8096 9.18749 10.8096C11.64 10.8096 13.8682 9.98082 15.6323 8.41332C16.9563 7.23645 17.5519 6.0627 17.5765 6.01332C17.6085 5.94938 17.625 5.88017 17.625 5.81019C17.625 5.74022 17.6085 5.67102 17.5765 5.60707ZM9.18749 9.80957C7.02327 9.80957 5.13257 9.1102 3.56742 7.73145C2.92521 7.16375 2.37884 6.51642 1.94531 5.80957C2.37873 5.10266 2.92511 4.45531 3.56742 3.8877C5.13257 2.50895 7.02327 1.80957 9.18749 1.80957C11.3517 1.80957 13.2424 2.50895 14.8076 3.8877C15.451 4.45517 15.9986 5.10252 16.4332 5.80957C15.9262 6.65082 13.7177 9.80957 9.18749 9.80957ZM9.18749 2.80957C8.51998 2.80957 7.86746 2.98552 7.31244 3.31516C6.75743 3.64481 6.32485 4.11334 6.0694 4.66152C5.81395 5.2097 5.74712 5.8129 5.87734 6.39484C6.00757 6.97678 6.32901 7.51133 6.80101 7.93089C7.27301 8.35045 7.87438 8.63617 8.52906 8.75193C9.18375 8.86768 9.86235 8.80827 10.479 8.58121C11.0958 8.35415 11.6229 7.96963 11.9937 7.47628C12.3646 6.98293 12.5625 6.40291 12.5625 5.80957C12.5616 5.01417 12.2057 4.25159 11.573 3.68916C10.9402 3.12673 10.0823 2.8104 9.18749 2.80957ZM9.18749 7.80957C8.74249 7.80957 8.30747 7.69227 7.93746 7.47251C7.56745 7.25275 7.27906 6.94039 7.10876 6.57494C6.93847 6.20948 6.89391 5.80735 6.98073 5.41939C7.06754 5.03143 7.28183 4.67506 7.5965 4.39536C7.91117 4.11565 8.31208 3.92517 8.74854 3.848C9.185 3.77083 9.6374 3.81044 10.0485 3.96181C10.4597 4.11319 10.8111 4.36953 11.0583 4.69843C11.3055 5.02733 11.4375 5.41401 11.4375 5.80957C11.4375 6.34 11.2004 6.84871 10.7785 7.22378C10.3565 7.59886 9.78423 7.80957 9.18749 7.80957Z" fill="#666666"/>
</svg>
