<svg width="23" height="40" viewBox="0 0 23 40" fill="none" xmlns="http://www.w3.org/2000/svg">
<path d="M17.1262 20.0123L1.28325 4.52909C0.744374 4.00245 0.483558 3.37892 0.500802 2.65847C0.518046 1.93803 0.796825 1.3152 1.33714 0.789963C1.87745 0.264729 2.51548 0.00140996 3.25123 5.58767e-06C3.98698 -0.00139878 4.62429 0.26192 5.16317 0.789963L21.7067 17.0104C22.1378 17.4317 22.4611 17.9057 22.6767 18.4323C22.8922 18.959 23 19.4856 23 20.0123C23 20.5389 22.8922 21.0655 22.6767 21.5922C22.4611 22.1188 22.1378 22.5928 21.7067 23.0141L5.10928 39.2345C4.5704 39.7612 3.94171 40.0161 3.22321 39.9992C2.50471 39.9824 1.87602 39.7099 1.33714 39.1819C0.798262 38.6538 0.528824 38.0303 0.528824 37.3113C0.528824 36.5922 0.798262 35.9694 1.33714 35.4427L17.1262 20.0123Z" fill="white" fill-opacity="0.85"/>
</svg>
