<svg width="14" height="14" viewBox="0 0 14 14" fill="none" xmlns="http://www.w3.org/2000/svg">
<path d="M5.5715 2.42878H8.42864C8.42864 2.0499 8.27813 1.68654 8.01022 1.41863C7.74231 1.15072 7.37895 1.00021 7.00007 1.00021C6.62119 1.00021 6.25783 1.15072 5.98992 1.41863C5.72201 1.68654 5.5715 2.0499 5.5715 2.42878ZM4.71436 2.42878C4.71436 1.82257 4.95517 1.24119 5.38383 0.812537C5.81248 0.383882 6.39386 0.143066 7.00007 0.143066C7.60628 0.143066 8.18766 0.383882 8.61631 0.812537C9.04497 1.24119 9.28578 1.82257 9.28578 2.42878H12.8572C12.9709 2.42878 13.0799 2.47393 13.1603 2.55431C13.2406 2.63468 13.2858 2.74369 13.2858 2.85735C13.2858 2.97102 13.2406 3.08002 13.1603 3.1604C13.0799 3.24077 12.9709 3.28592 12.8572 3.28592H12.1086L11.4132 11.6305C11.3626 12.2375 11.0857 12.8034 10.6375 13.2159C10.1892 13.6283 9.60236 13.8573 8.99321 13.8574H5.00693C4.39778 13.8573 3.81089 13.6283 3.36264 13.2159C2.9144 12.8034 2.63752 12.2375 2.58693 11.6305L1.8915 3.28592H1.14293C1.02926 3.28592 0.920254 3.24077 0.839881 3.1604C0.759508 3.08002 0.714355 2.97102 0.714355 2.85735C0.714355 2.74369 0.759508 2.63468 0.839881 2.55431C0.920254 2.47393 1.02926 2.42878 1.14293 2.42878H4.71436ZM6.14293 5.71449C6.14293 5.60083 6.09777 5.49182 6.0174 5.41145C5.93703 5.33108 5.82802 5.28592 5.71435 5.28592C5.60069 5.28592 5.49168 5.33108 5.41131 5.41145C5.33094 5.49182 5.28578 5.60083 5.28578 5.71449V10.5716C5.28578 10.6853 5.33094 10.7943 5.41131 10.8747C5.49168 10.9551 5.60069 11.0002 5.71435 11.0002C5.82802 11.0002 5.93703 10.9551 6.0174 10.8747C6.09777 10.7943 6.14293 10.6853 6.14293 10.5716V5.71449ZM8.28578 5.28592C8.17212 5.28592 8.06311 5.33108 7.98274 5.41145C7.90237 5.49182 7.85721 5.60083 7.85721 5.71449V10.5716C7.85721 10.6853 7.90237 10.7943 7.98274 10.8747C8.06311 10.9551 8.17212 11.0002 8.28578 11.0002C8.39945 11.0002 8.50846 10.9551 8.58883 10.8747C8.6692 10.7943 8.71435 10.6853 8.71435 10.5716V5.71449C8.71435 5.60083 8.6692 5.49182 8.58883 5.41145C8.50846 5.33108 8.39945 5.28592 8.28578 5.28592Z" fill="#344E41"/>
</svg>
