<svg width="12" height="9" viewBox="0 0 12 9" fill="none" xmlns="http://www.w3.org/2000/svg">
<path d="M11.7359 0.344159C11.5667 0.123795 11.3373 0 11.098 0C10.8588 0 10.6294 0.123795 10.4602 0.344159L5.99455 6.16269L1.52889 0.344159C1.35874 0.130039 1.13086 0.0115595 0.894314 0.0142374C0.657772 0.0169153 0.4315 0.140537 0.264234 0.358478C0.0969667 0.576418 0.0020895 0.871238 3.43323e-05 1.17944C-0.00202084 1.48764 0.0889111 1.78456 0.253245 2.00626L5.35673 8.65584C5.52591 8.87621 5.75533 9 5.99455 9C6.23377 9 6.4632 8.87621 6.63238 8.65584L11.7359 2.00626C11.905 1.78583 12 1.4869 12 1.17521C12 0.863519 11.905 0.56459 11.7359 0.344159Z" fill="#787878"/>
</svg>
