<svg width="9" height="7" viewBox="0 0 9 7" fill="none" xmlns="http://www.w3.org/2000/svg">
<path fill-rule="evenodd" clip-rule="evenodd" d="M5.16248 6.03735C4.9867 6.21291 4.74842 6.31152 4.49998 6.31152C4.25155 6.31152 4.01327 6.21291 3.83748 6.03735L0.301233 2.50235C0.214191 2.41527 0.145155 2.31189 0.0980635 2.19813C0.0509729 2.08436 0.0267496 1.96244 0.0267792 1.83931C0.0268078 1.71619 0.0510883 1.59428 0.0982332 1.48054C0.145377 1.36679 0.214463 1.26345 0.301546 1.17641C0.388628 1.08937 0.492003 1.02033 0.605766 0.973241C0.71953 0.92615 0.841455 0.901927 0.96458 0.901956C1.0877 0.901985 1.20962 0.926266 1.32336 0.97341C1.4371 1.02055 1.54044 1.08964 1.62748 1.17672L4.49998 4.0486L7.37248 1.1761C7.45892 1.08652 7.56234 1.01505 7.67669 0.965862C7.79105 0.916675 7.91405 0.890757 8.03853 0.889617C8.16301 0.888477 8.28647 0.912139 8.40171 0.959223C8.51695 1.00631 8.62165 1.07587 8.70972 1.16385C8.79778 1.25183 8.86745 1.35647 8.91464 1.47167C8.96183 1.58686 8.98561 1.7103 8.98459 1.83478C8.98356 1.95926 8.95776 2.08229 8.90868 2.19669C8.8596 2.31109 8.78823 2.41457 8.69873 2.5011L5.16248 6.03735Z" fill="#344E41"/>
</svg>
