<svg width="20" height="24" viewBox="0 0 20 24" fill="none" xmlns="http://www.w3.org/2000/svg">
<path d="M19.513 12.4392C19.2317 12.158 18.8502 12 18.4525 12C18.0547 12 17.6733 12.158 17.392 12.4392L9.96697 19.8642L2.54197 12.4392C2.25907 12.1659 1.88016 12.0148 1.48687 12.0182C1.09357 12.0216 0.717352 12.1793 0.43924 12.4575C0.161127 12.7356 0.00337601 13.1118 -4.19617e-05 13.5051C-0.00345993 13.8984 0.147732 14.2773 0.420969 14.5602L8.90647 23.0457C9.18776 23.3269 9.56922 23.4849 9.96697 23.4849C10.3647 23.4849 10.7462 23.3269 11.0275 23.0457L19.513 14.5602C19.7942 14.2789 19.9521 13.8974 19.9521 13.4997C19.9521 13.1019 19.7942 12.7205 19.513 12.4392Z" fill="#BBBBBB"/>
<path d="M19.513 0.439184C19.2317 0.157977 18.8502 3.8147e-06 18.4525 3.8147e-06C18.0547 3.8147e-06 17.6733 0.157977 17.392 0.439184L9.96697 7.86418L2.54197 0.439184C2.25907 0.165947 1.88016 0.0147552 1.48687 0.0181732C1.09357 0.0215902 0.717352 0.179344 0.43924 0.457456C0.161127 0.735568 0.00337601 1.11179 -4.19617e-05 1.50508C-0.00345993 1.89838 0.147732 2.27728 0.420969 2.56018L8.90647 11.0457C9.18776 11.3269 9.56922 11.4849 9.96697 11.4849C10.3647 11.4849 10.7462 11.3269 11.0275 11.0457L19.513 2.56018C19.7942 2.27889 19.9521 1.89743 19.9521 1.49968C19.9521 1.10194 19.7942 0.720475 19.513 0.439184Z" fill="#BBBBBB"/>
</svg>
