<svg width="33" height="32" viewBox="0 0 33 32" fill="none" xmlns="http://www.w3.org/2000/svg">
<rect x="6.87146" y="19.8921" width="17.4951" height="3.97573" fill="#DAD7CD"/>
<rect x="11.5669" y="8.53271" width="17.4951" height="3.97573" fill="#DAD7CD"/>
<rect x="12.3387" y="5.37744" width="15.2439" height="3.97573" fill="#DAD7CD"/>
<rect x="11.8242" y="2.72656" width="12.2209" height="3.40777" fill="#DAD7CD"/>
<rect x="10.6664" y="12.1929" width="17.4951" height="3.97573" fill="#DAD7CD"/>
<rect x="9.83023" y="15.916" width="17.4951" height="3.97573" fill="#DAD7CD"/>
<rect x="6.2926" y="23.8677" width="17.4951" height="3.97573" fill="#DAD7CD"/>
<path d="M8.76892 25.8872H24.045V29.8629H9.83021L8.76892 25.8872Z" fill="#DAD7CD"/>
<rect x="2.44943" y="10.3154" width="8.04005" height="1.97209" fill="#344E41"/>
<rect x="4.45941" y="10.3154" width="8.04005" height="1.97209" fill="#344E41"/>
<rect x="4.45941" y="6.37109" width="12.0601" height="1.97209" fill="#344E41"/>
<rect x="6.46948" y="4.39941" width="10.0501" height="1.97209" fill="#344E41"/>
<path d="M9.48447 2.42725H14.5095V4.39933H8.47946L9.48447 2.42725Z" fill="#344E41"/>
<path d="M2.44943 9.00062H15.5815V10.3153H2.44943V9.00062Z" fill="#344E41"/>
<path d="M3.38744 8.34326H16.5195V9.65799H3.38744V8.34326Z" fill="#344E41"/>
<rect x="2.44943" y="14.2598" width="8.04005" height="1.97209" fill="#344E41"/>
<rect x="2.44943" y="16.2314" width="8.04005" height="1.97209" fill="#344E41"/>
<rect x="2.44943" y="18.2036" width="6.03004" height="1.97209" fill="#344E41"/>
<rect x="2.44943" y="20.1758" width="4.02002" height="1.97209" fill="#344E41"/>
<rect x="4.45941" y="22.1479" width="2.01001" height="1.97209" fill="#344E41"/>
<path d="M2.44943 22.1479H4.45944V24.12H3.45444L2.44943 22.1479Z" fill="#344E41"/>
<rect x="2.44934" y="12.2876" width="8.04005" height="1.97209" fill="#344E41"/>
<rect x="22.5494" y="16.2314" width="8.04005" height="1.97209" fill="#344E41"/>
<rect x="26.5694" y="18.2036" width="4.02002" height="1.97209" fill="#344E41"/>
<path d="M22.5494 24.1201H28.5795L26.5695 28.0643H24.5595L22.5494 24.1201Z" fill="#344E41"/>
<path d="M22.5494 22.1479H30.5895L29.5845 24.12H22.5494V22.1479Z" fill="#344E41"/>
<path d="M23.5544 6.37109H28.5795V8.34318H22.5494L23.5544 6.37109Z" fill="#344E41"/>
<rect x="24.5594" y="4.39941" width="2.01001" height="1.97209" fill="#344E41"/>
<path d="M21.5444 8.34326H29.5844L30.5894 10.3153H20.5394L21.5444 8.34326Z" fill="#344E41"/>
<rect x="20.5394" y="10.3154" width="10.0501" height="1.97209" fill="#344E41"/>
<rect x="20.5394" y="12.2876" width="10.0501" height="1.97209" fill="#344E41"/>
<rect x="22.5494" y="14.2598" width="8.04005" height="1.97209" fill="#344E41"/>
<rect x="24.5594" y="20.1758" width="6.03004" height="1.97209" fill="#344E41"/>
<path d="M16.5196 0.455078C12.2548 0.455078 8.16481 2.11726 5.1492 5.07597C2.1336 8.03467 0.439453 12.0475 0.439453 16.2318C0.439453 20.416 2.1336 24.4289 5.1492 27.3876C8.16481 30.3463 12.2548 32.0085 16.5196 32.0085C20.7843 32.0085 24.8743 30.3463 27.8899 27.3876C30.9055 24.4289 32.5996 20.416 32.5996 16.2318C32.5996 12.0475 30.9055 8.03467 27.8899 5.07597C24.8743 2.11726 20.7843 0.455078 16.5196 0.455078ZM13.6366 3.01316C13.8204 3.3625 14.0042 3.6893 14.1994 4.02737C15.0723 5.55997 15.8419 6.87845 15.348 8.64769C15.1527 9.41399 14.1994 9.7746 12.89 10.2254C11.9508 10.443 11.0966 10.9247 10.4321 11.6115C9.98232 12.2667 9.70227 13.0198 9.61621 13.8053C9.53014 14.5908 9.64067 15.385 9.9382 16.1191C10.1564 16.953 10.2828 17.4714 10.0531 17.8094C9.82334 18.1475 9.88077 18.0123 9.27202 18.0912C8.58723 18.1333 7.92116 18.3277 7.32421 18.6596C6.72725 18.9915 6.21503 19.4522 5.82629 20.0069C5.16353 20.9505 4.79261 22.0619 4.75811 23.2073C3.44135 21.1096 2.74171 18.6954 2.73661 16.2318C2.73781 13.1374 3.8206 10.1371 5.80428 7.73144C7.78796 5.32579 10.5525 3.66039 13.6366 3.01316ZM7.22755 26.1936C7.04378 24.9202 6.75663 22.6213 7.6755 21.4156C7.88514 21.0949 8.17419 20.8317 8.51565 20.6504C8.85711 20.4691 9.23984 20.3756 9.62808 20.3788C10.0844 20.3516 10.5284 20.2228 10.9264 20.0022C11.3244 19.7815 11.666 19.4748 11.9252 19.1054C12.2182 18.5709 12.3866 17.9793 12.4184 17.3733C12.4502 16.7673 12.3445 16.1618 12.109 15.6007C11.8104 14.4738 11.6496 13.7188 12.2239 12.9637C12.6614 12.6959 13.1377 12.4945 13.6366 12.3665C15.0953 11.8819 17.0824 11.2396 17.5877 9.16607C18.2309 6.54038 17.1283 4.65844 16.152 2.91174L16.0946 2.70889H16.5196C19.1188 2.70889 21.6652 3.43687 23.859 4.80494C22.6511 6.6392 21.1987 8.30677 19.5403 9.76333C17.9553 11.172 19.1153 12.7947 19.8849 13.8653C20.3047 14.3068 20.6298 14.8266 20.8409 15.3938C21.052 15.961 21.1449 16.564 21.1139 17.1671C21.031 17.4813 21.0319 17.8111 21.1163 18.1249C21.2008 18.4386 21.3661 18.7258 21.5963 18.9589C21.9443 19.1892 22.3468 19.3279 22.7652 19.3614C23.1836 19.395 23.6038 19.3223 23.9853 19.1505C24.261 19.0738 24.5401 19.0175 24.8238 18.9814C24.9501 19.4097 24.7089 19.759 23.6752 20.6943C22.6415 21.6297 21.2747 22.8918 21.6882 24.909C21.8347 25.4891 22.1049 26.0321 22.4811 26.5022C22.8573 26.9723 23.3308 27.3588 23.8705 27.6361C21.3231 29.2316 18.3092 29.9553 15.2987 29.6944C12.2883 29.4335 9.45039 28.2026 7.22755 26.1936ZM25.8345 26.1936L25.3866 25.9119C24.5826 25.4386 24.0887 25.1005 23.9623 24.4807C23.836 23.8609 24.2495 23.2975 25.2717 22.3622C26.294 21.4268 27.7182 20.1083 26.9601 18.1137C26.2595 16.2994 24.3299 16.7614 23.457 16.9868C23.4298 15.3742 22.8331 13.8208 21.7686 12.5919C21.481 12.2534 21.2485 11.8732 21.0794 11.465C22.841 9.91748 24.3859 8.14787 25.6737 6.2023C27.1098 7.4555 28.2616 8.99064 29.0546 10.7083C29.8476 12.426 30.264 14.2879 30.277 16.1735C30.29 18.0591 29.8992 19.9264 29.13 21.6545C28.3608 23.3825 27.2302 24.9328 25.8116 26.2049L25.8345 26.1936Z" fill="#1E1E1E"/>
</svg>
