<svg width="20" height="20" viewBox="0 0 20 20" fill="none" xmlns="http://www.w3.org/2000/svg">
<path d="M10 19C14.9707 19 19 14.9707 19 10C19 5.0293 14.9707 1 10 1C5.0293 1 1 5.0293 1 10C1 14.9707 5.0293 19 10 19Z" stroke="#1E1E1E" stroke-linecap="round" stroke-linejoin="round"/>
<path d="M10 9.5498C10.5967 9.5498 11.169 9.31275 11.591 8.89079C12.0129 8.46884 12.25 7.89654 12.25 7.2998C12.25 6.70307 12.0129 6.13077 11.591 5.70881C11.169 5.28686 10.5967 5.0498 10 5.0498C9.40326 5.0498 8.83097 5.28686 8.40901 5.70881C7.98705 6.13077 7.75 6.70307 7.75 7.2998C7.75 7.89654 7.98705 8.46884 8.40901 8.89079C8.83097 9.31275 9.40326 9.5498 10 9.5498Z" stroke="#1E1E1E" stroke-linejoin="round"/>
<path d="M3.70996 16.4494C3.86476 14.1045 5.81596 12.25 8.20006 12.25H11.8001C14.181 12.25 16.1304 14.0995 16.2897 16.44" stroke="#1E1E1E" stroke-linecap="round" stroke-linejoin="round"/>
</svg>
