<svg width="19" height="19" viewBox="0 0 19 19" fill="none" xmlns="http://www.w3.org/2000/svg">
<path d="M9.5 18.875C8.20972 18.875 6.99444 18.6285 5.85417 18.1354C4.71389 17.6424 3.72083 16.9722 2.875 16.125C2.02778 15.2799 1.35764 14.2868 0.864583 13.1458C0.371528 12.0056 0.125 10.7903 0.125 9.5C0.125 8.20625 0.371528 6.98993 0.864583 5.85104C1.35833 4.71215 2.02847 3.71979 2.875 2.87396C3.72014 2.02812 4.71319 1.35868 5.85417 0.865625C6.99444 0.371875 8.20972 0.125 9.5 0.125C10.7937 0.125 12.0101 0.371528 13.149 0.864583C14.2878 1.35833 15.2802 2.02847 16.126 2.875C16.9719 3.72083 17.6413 4.71285 18.1344 5.85104C18.6281 6.98993 18.875 8.20625 18.875 9.5C18.875 10.7903 18.6285 12.0056 18.1354 13.1458C17.6424 14.2861 16.9722 15.2792 16.125 16.125C15.2792 16.9715 14.2872 17.6417 13.149 18.1354C12.0101 18.6285 10.7937 18.875 9.5 18.875ZM9.5 17.8417C10.1111 17.0562 10.6153 16.2851 11.0125 15.5281C11.409 14.7712 11.7316 13.924 11.9802 12.9865H7.01979C7.29479 13.9767 7.62396 14.8503 8.00729 15.6073C8.39062 16.3642 8.88819 17.109 9.5 17.8417ZM8.17396 17.6854C7.68785 17.1125 7.2441 16.4042 6.84271 15.5604C6.44132 14.7174 6.14271 13.859 5.94687 12.9854H1.95104C2.54826 14.2812 3.39444 15.3438 4.48958 16.1729C5.58542 17.0021 6.81319 17.5062 8.17292 17.6854M10.825 17.6854C12.1847 17.5062 13.4125 17.0021 14.5083 16.1729C15.6042 15.3438 16.4503 14.2812 17.0469 12.9854H13.0531C12.7892 13.8722 12.4569 14.7375 12.0562 15.5812C11.6549 16.4243 11.2444 17.1257 10.825 17.6854ZM1.52604 11.9437H5.72917C5.65 11.5167 5.59444 11.1003 5.5625 10.6948C5.52917 10.2892 5.5125 9.89097 5.5125 9.5C5.5125 9.10903 5.52882 8.71076 5.56146 8.30521C5.5941 7.89965 5.64965 7.48299 5.72812 7.05521H1.52813C1.41493 7.41632 1.32639 7.80972 1.2625 8.23542C1.19861 8.66111 1.16667 9.08264 1.16667 9.5C1.16667 9.91806 1.19826 10.3396 1.26146 10.7646C1.32535 11.1903 1.41389 11.5833 1.52708 11.9437M6.77187 11.9437H12.2281C12.3073 11.5167 12.3628 11.1069 12.3948 10.7146C12.4281 10.3229 12.4448 9.91806 12.4448 9.5C12.4448 9.08194 12.4285 8.67708 12.3958 8.28542C12.3632 7.89305 12.3076 7.48333 12.2292 7.05625H6.77083C6.69236 7.48333 6.63681 7.89305 6.60417 8.28542C6.57153 8.67708 6.55521 9.08194 6.55521 9.5C6.55521 9.91806 6.57153 10.3229 6.60417 10.7146C6.63681 11.1069 6.6934 11.5167 6.77187 11.9437ZM13.2708 11.9437H17.4729C17.5861 11.5826 17.6747 11.1896 17.7385 10.7646C17.8024 10.3396 17.834 9.91806 17.8333 9.5C17.8333 9.08194 17.8017 8.66042 17.7385 8.23542C17.6747 7.80972 17.5861 7.41667 17.4729 7.05625H13.2698C13.349 7.48333 13.4045 7.89965 13.4365 8.30521C13.4698 8.71076 13.4865 9.10903 13.4865 9.5C13.4865 9.89097 13.4701 10.2892 13.4375 10.6948C13.4049 11.1003 13.3493 11.517 13.2708 11.9448M13.0542 6.01458H17.0479C16.4375 4.69236 15.6014 3.62986 14.5396 2.82708C13.4771 2.02431 12.2392 1.51389 10.826 1.29583C11.3122 1.93472 11.7493 2.66597 12.1375 3.48958C12.525 4.3125 12.8306 5.15417 13.0542 6.01458ZM7.01979 6.01458H11.9802C11.7052 5.03681 11.366 4.15278 10.9625 3.3625C10.5597 2.57153 10.0722 1.83681 9.5 1.15833C8.92847 1.83681 8.44097 2.57153 8.0375 3.3625C7.63472 4.15278 7.29549 5.03681 7.01979 6.01458ZM1.95208 6.01458H5.94583C6.16944 5.15417 6.475 4.3125 6.8625 3.48958C7.25069 2.66597 7.68785 1.93438 8.17396 1.29479C6.74757 1.51354 5.5066 2.02743 4.45104 2.83646C3.39549 3.64618 2.56215 4.70521 1.95104 6.01354" fill="#1E1E1E"/>
</svg>
