<svg width="18" height="20" viewBox="0 0 18 20" fill="none" xmlns="http://www.w3.org/2000/svg">
<path d="M10.8488 2.18638C11.9519 2.57064 12.908 3.28863 13.5847 4.24078C14.2613 5.19292 14.6249 6.33203 14.625 7.50013V12.1251L17.2163 14.5439C17.3077 14.6295 17.3714 14.7406 17.3989 14.8629C17.4264 14.9851 17.4165 15.1128 17.3706 15.2293C17.3246 15.3459 17.2447 15.446 17.1412 15.5165C17.0377 15.5871 16.9153 15.6249 16.79 15.6251H1.21128C1.08562 15.6255 0.962766 15.5879 0.858765 15.5174C0.754764 15.4468 0.674443 15.3466 0.628284 15.2297C0.582125 15.1128 0.572272 14.9847 0.600011 14.8622C0.627751 14.7396 0.691794 14.6282 0.783782 14.5426L3.37503 12.1251V7.50013C3.37514 6.33203 3.73874 5.19292 4.41539 4.24078C5.09203 3.28863 6.0482 2.57064 7.15128 2.18638C7.22516 1.7495 7.45137 1.35291 7.78978 1.06692C8.1282 0.78093 8.55696 0.624023 9.00003 0.624023C9.44311 0.624023 9.87187 0.78093 10.2103 1.06692C10.5487 1.35291 10.7749 1.7495 10.8488 2.18638Z" stroke="#1E1E1E" stroke-linecap="round" stroke-linejoin="round"/>
<path d="M7.23132 18.125C7.36016 18.4912 7.59951 18.8085 7.91634 19.0329C8.23316 19.2573 8.61183 19.3778 9.00007 19.3778C9.38832 19.3778 9.76699 19.2573 10.0838 19.0329C10.4006 18.8085 10.64 18.4912 10.7688 18.125H7.23132Z" stroke="#1E1E1E"/>
</svg>
