<svg width="12" height="10" viewBox="0 0 12 10" fill="none" xmlns="http://www.w3.org/2000/svg">
<path d="M1.74996 2.99992C1.75006 2.52587 1.8727 2.0599 2.10597 1.64723C2.33925 1.23456 2.67524 0.88919 3.08133 0.644648C3.48743 0.400105 3.94985 0.264691 4.42371 0.251546C4.89757 0.238401 5.36678 0.347972 5.78581 0.569625C6.20484 0.791278 6.55946 1.11749 6.81525 1.51659C7.07104 1.9157 7.21932 2.37415 7.2457 2.84746C7.27208 3.32077 7.17566 3.79286 6.9658 4.21792C6.75594 4.64298 6.43977 5.00657 6.04796 5.27342C6.89172 5.58288 7.62355 6.13777 8.14928 6.86667C8.67502 7.59557 8.97059 8.46512 8.99796 9.36341C8.9968 9.46027 8.95826 9.55292 8.89038 9.62202C8.82251 9.69113 8.73057 9.73133 8.63375 9.73423C8.53694 9.73714 8.44274 9.70252 8.37085 9.63761C8.29896 9.5727 8.25493 9.48252 8.24796 9.38591C8.21819 8.41164 7.81023 7.48725 7.11055 6.80862C6.41087 6.12999 5.47444 5.75047 4.49971 5.75047C3.52499 5.75047 2.58856 6.12999 1.88888 6.80862C1.18919 7.48725 0.781239 8.41164 0.751464 9.38591C0.746458 9.48383 0.703303 9.57589 0.631244 9.64238C0.559184 9.70886 0.463953 9.74448 0.365951 9.74161C0.267948 9.73873 0.17497 9.69759 0.106935 9.62699C0.0388992 9.55639 0.00121817 9.46196 0.00196399 9.36392C0.0292397 8.46553 0.324767 7.59587 0.850507 6.86687C1.37625 6.13788 2.10813 5.58291 2.95196 5.27342C2.58138 5.02123 2.27811 4.68223 2.0686 4.28595C1.85909 3.88968 1.7497 3.44817 1.74996 2.99992ZM4.49996 0.999915C3.96953 0.999915 3.46082 1.21063 3.08575 1.5857C2.71068 1.96077 2.49996 2.46948 2.49996 2.99992C2.49996 3.53035 2.71068 4.03906 3.08575 4.41413C3.46082 4.7892 3.96953 4.99992 4.49996 4.99992C5.0304 4.99992 5.5391 4.7892 5.91418 4.41413C6.28925 4.03906 6.49996 3.53035 6.49996 2.99992C6.49996 2.46948 6.28925 1.96077 5.91418 1.5857C5.5391 1.21063 5.0304 0.999915 4.49996 0.999915ZM8.64496 2.99992C8.57096 2.99992 8.49896 3.00491 8.42796 3.01491C8.37839 3.02379 8.32754 3.02259 8.27844 3.01139C8.22935 3.00019 8.18301 2.97921 8.1422 2.94971C8.10138 2.92021 8.06693 2.88279 8.04089 2.83968C8.01485 2.79658 7.99776 2.74867 7.99064 2.69882C7.98351 2.64897 7.98651 2.59819 7.99944 2.54952C8.01236 2.50085 8.03496 2.45528 8.06588 2.41553C8.09681 2.37578 8.13542 2.34267 8.17941 2.31817C8.22341 2.29366 8.27189 2.27827 8.32196 2.27292C8.81925 2.20102 9.32633 2.29651 9.7634 2.54438C10.2005 2.79224 10.5427 3.1784 10.7363 3.64208C10.9298 4.10576 10.9637 4.62064 10.8326 5.10568C10.7015 5.59073 10.4128 6.01841 10.012 6.32141C10.6012 6.58524 11.1014 7.01392 11.4524 7.55573C11.8034 8.09755 11.9901 8.72935 11.99 9.37492C11.99 9.47437 11.9505 9.56975 11.8801 9.64008C11.8098 9.71041 11.7144 9.74992 11.615 9.74992C11.5155 9.74992 11.4201 9.71041 11.3498 9.64008C11.2795 9.56975 11.24 9.47437 11.24 9.37492C11.2399 8.81699 11.0601 8.27392 10.7273 7.82616C10.3944 7.37839 9.92621 7.04975 9.39196 6.88892L9.12496 6.80892V5.97092L9.32996 5.86642C9.63384 5.71249 9.87698 5.46064 10.0201 5.15154C10.1633 4.84243 10.1981 4.49411 10.1189 4.16279C10.0397 3.83148 9.85119 3.53652 9.58376 3.32553C9.31633 3.11454 8.9856 2.99982 8.64496 2.99992Z" fill="#787878"/>
</svg>
