<svg width="10" height="10" viewBox="0 0 10 10" fill="none" xmlns="http://www.w3.org/2000/svg">
<g clip-path="url(#clip0_240_46)">
<path d="M8.92083 4.82516L5.17083 1.07516C5.02083 0.925163 4.8125 0.833496 4.58333 0.833496H1.66667C1.20833 0.833496 0.833332 1.2085 0.833332 1.66683V4.5835C0.833332 4.81266 0.924999 5.021 1.07917 5.17516L4.82917 8.92516C4.97917 9.07516 5.1875 9.16683 5.41667 9.16683C5.64583 9.16683 5.85417 9.07516 6.00417 8.921L8.92083 6.00433C9.075 5.85433 9.16667 5.646 9.16667 5.41683C9.16667 5.18766 9.07083 4.97516 8.92083 4.82516ZM5.41667 8.33766L1.66667 4.5835V1.66683H4.58333V1.66266L8.33333 5.41266L5.41667 8.33766Z" fill="white"/>
<path d="M2.70833 3.3335C3.05351 3.3335 3.33333 3.05367 3.33333 2.7085C3.33333 2.36332 3.05351 2.0835 2.70833 2.0835C2.36315 2.0835 2.08333 2.36332 2.08333 2.7085C2.08333 3.05367 2.36315 3.3335 2.70833 3.3335Z" fill="white"/>
</g>
<defs>
<clipPath id="clip0_240_46">
<rect width="10" height="10" fill="white"/>
</clipPath>
</defs>
</svg>
