<svg width="12" height="8" viewBox="0 0 12 8" fill="none" xmlns="http://www.w3.org/2000/svg">
<path d="M9.5 6.5V7.5H3.5V6.5C3.5 6.5 3.5 4.5 6.5 4.5C9.5 4.5 9.5 6.5 9.5 6.5ZM8 2C8 1.70333 7.91203 1.41332 7.7472 1.16665C7.58238 0.919971 7.34811 0.727713 7.07403 0.614181C6.79994 0.50065 6.49834 0.470945 6.20736 0.528823C5.91639 0.586701 5.64912 0.729562 5.43934 0.939341C5.22956 1.14912 5.0867 1.41639 5.02882 1.70737C4.97094 1.99834 5.00065 2.29994 5.11418 2.57403C5.22771 2.84811 5.41997 3.08238 5.66664 3.24721C5.91332 3.41203 6.20333 3.5 6.5 3.5C6.89782 3.5 7.27936 3.34197 7.56066 3.06066C7.84196 2.77936 8 2.39783 8 2ZM9.6 4.53C9.87332 4.78215 10.0937 5.08622 10.2482 5.42446C10.4027 5.76269 10.4883 6.12832 10.5 6.5V7.5H12V6.5C12 6.5 12 4.775 9.6 4.53ZM9 0.500001C8.84893 0.500009 8.69878 0.523628 8.555 0.570001C8.84753 0.989485 9.00437 1.48859 9.00437 2C9.00437 2.51141 8.84753 3.01052 8.555 3.43C8.69878 3.47637 8.84893 3.49999 9 3.5C9.39782 3.5 9.77936 3.34197 10.0607 3.06066C10.342 2.77936 10.5 2.39783 10.5 2C10.5 1.60218 10.342 1.22065 10.0607 0.939341C9.77936 0.658036 9.39782 0.500001 9 0.500001ZM4 3H2.5V1.5H1.5V3H0V4H1.5V5.5H2.5V4H4V3Z" fill="#BBBBBB"/>
</svg>
