<svg width="10" height="10" viewBox="0 0 10 10" fill="none" xmlns="http://www.w3.org/2000/svg">
<path d="M8.43753 0.625109C8.18889 0.625109 7.95044 0.723867 7.77462 0.899658C7.59881 1.07545 7.50004 1.31387 7.50004 1.56248C7.50004 1.81108 7.59881 2.04951 7.77462 2.2253C7.95044 2.40109 8.18889 2.49985 8.43753 2.49985C8.68616 2.49985 8.92461 2.40109 9.10043 2.2253C9.27624 2.04951 9.37501 1.81108 9.37501 1.56248C9.37501 1.31387 9.27624 1.07545 9.10043 0.899658C8.92461 0.723867 8.68616 0.625109 8.43753 0.625109ZM6.87505 1.56248C6.87501 1.19592 7.00387 0.841026 7.23909 0.559875C7.47431 0.278724 7.80091 0.0892234 8.16176 0.0245285C8.5226 -0.0401664 8.89471 0.0240638 9.21297 0.205981C9.53123 0.387899 9.77539 0.67592 9.90272 1.01965C10.0301 1.36338 10.0325 1.74094 9.9095 2.08626C9.78654 2.43158 9.54607 2.72268 9.23014 2.90863C8.91421 3.09457 8.54295 3.16352 8.18132 3.10342C7.81968 3.04331 7.49069 2.85798 7.25192 2.57983L3.05324 4.52956C3.14972 4.83542 3.14972 5.16357 3.05324 5.46943L7.25192 7.41916C7.50432 7.12565 7.8567 6.93629 8.24078 6.88776C8.62485 6.83924 9.01327 6.935 9.33075 7.1565C9.64823 7.378 9.87217 7.70946 9.95917 8.08664C10.0462 8.46382 9.99002 8.85987 9.80162 9.19802C9.61322 9.53617 9.30598 9.79235 8.93944 9.9169C8.5729 10.0415 8.17317 10.0255 7.81771 9.87219C7.46225 9.71886 7.17638 9.43904 7.0155 9.08697C6.85461 8.73489 6.83018 8.33564 6.94693 7.96658L2.74825 6.01685C2.5404 6.25905 2.26335 6.43179 1.95437 6.51184C1.64539 6.59188 1.31931 6.57539 1.01999 6.46459C0.720661 6.35378 0.462455 6.15398 0.280103 5.89205C0.097751 5.63012 0 5.31864 0 4.9995C0 4.68035 0.097751 4.36887 0.280103 4.10694C0.462455 3.84501 0.720661 3.64521 1.01999 3.5344C1.31931 3.4236 1.64539 3.40711 1.95437 3.48715C2.26335 3.5672 2.5404 3.73994 2.74825 3.98214L6.94693 2.03241C6.89913 1.88035 6.87489 1.72187 6.87505 1.56248ZM1.56264 4.06213C1.314 4.06213 1.07555 4.16088 0.899738 4.33668C0.723926 4.51247 0.625155 4.75089 0.625155 4.9995C0.625155 5.2481 0.723926 5.48652 0.899738 5.66231C1.07555 5.83811 1.314 5.93686 1.56264 5.93686C1.81128 5.93686 2.04973 5.83811 2.22554 5.66231C2.40135 5.48652 2.50012 5.2481 2.50012 4.9995C2.50012 4.75089 2.40135 4.51247 2.22554 4.33668C2.04973 4.16088 1.81128 4.06213 1.56264 4.06213ZM8.43753 7.49914C8.18889 7.49914 7.95044 7.5979 7.77462 7.77369C7.59881 7.94948 7.50004 8.18791 7.50004 8.43651C7.50004 8.68512 7.59881 8.92354 7.77462 9.09933C7.95044 9.27512 8.18889 9.37388 8.43753 9.37388C8.68616 9.37388 8.92461 9.27512 9.10043 9.09933C9.27624 8.92354 9.37501 8.68512 9.37501 8.43651C9.37501 8.18791 9.27624 7.94948 9.10043 7.77369C8.92461 7.5979 8.68616 7.49914 8.43753 7.49914Z" fill="#BBBBBB"/>
</svg>
