<svg width="14" height="16" viewBox="0 0 14 16" fill="none" xmlns="http://www.w3.org/2000/svg">
<path d="M11.7211 13.9031L12.1831 4.11309H12.8526C13.1271 4.11309 13.3483 3.88538 13.3483 3.6108C13.3483 3.33623 13.1271 3.10166 12.8526 3.10166H9.92629V2.09738C9.92629 1.13966 9.27686 0.51709 8.24571 0.51709H5.74114C4.70971 0.51709 4.06686 1.13995 4.06686 2.09709V3.10166H1.15429C0.886572 3.10166 0.652 3.33595 0.652 3.6108C0.652 3.88509 0.886286 4.11309 1.15429 4.11309H1.824L2.28571 13.9099C2.33257 14.8742 2.96857 15.4834 3.93314 15.4834H10.0737C11.0311 15.4834 11.674 14.8674 11.7209 13.9034M5.13829 2.16423C5.13829 1.78252 5.41971 1.5148 5.82143 1.5148H8.172C8.58057 1.5148 8.86171 1.78252 8.86171 2.16423V3.10166H5.13829V2.16423ZM4.03343 14.4791C3.64486 14.4791 3.35714 14.1842 3.33714 13.7962L2.86857 4.11309H11.1114L10.6697 13.7959C10.6497 14.1911 10.3683 14.4788 9.97314 14.4788L4.03343 14.4791ZM8.98886 13.3005C9.20971 13.3005 9.37743 13.1197 9.384 12.8651L9.58486 5.79366C9.59143 5.53937 9.41743 5.35166 9.18971 5.35166C8.98229 5.35166 8.808 5.54595 8.80114 5.78709L8.60057 12.8651C8.59371 13.1062 8.76114 13.3005 8.98886 13.3005ZM5.018 13.3005C5.24571 13.3005 5.41286 13.1062 5.40629 12.8651L5.20543 5.78709C5.19857 5.54595 5.018 5.35166 4.81029 5.35166C4.58257 5.35166 4.41514 5.53937 4.42171 5.79366L4.62943 12.8651C4.63629 13.1197 4.79686 13.3005 5.018 13.3005ZM7.40857 12.8651V5.78709C7.40857 5.54595 7.22771 5.35166 7.00657 5.35166C6.78571 5.35166 6.598 5.54595 6.598 5.78709V12.8651C6.598 13.1062 6.78571 13.3005 7.00657 13.3005C7.22086 13.3005 7.40857 13.1062 7.40857 12.8651Z" fill="white"/>
</svg>
