<svg width="24" height="22" viewBox="0 0 24 22" fill="none" xmlns="http://www.w3.org/2000/svg">
<path d="M0 21.0711V18.7378C0 18.7378 5.83333 16.4045 11.6667 16.4045C17.5 16.4045 23.3333 18.7378 23.3333 18.7378V21.0711H0ZM10.85 6.02113C9.45 1.47113 2.33333 2.52113 2.33333 2.52113C2.33333 2.52113 2.56667 11.6211 9.21667 10.2211C8.75 6.83779 7 5.90446 7 5.90446C10.2667 5.90446 10.5 9.87113 10.5 9.87113V15.2378H12.8333V10.3378C12.8333 10.3378 12.8333 5.78779 16.3333 4.62113C16.3333 4.62113 14 8.12113 14 10.4545C22.1667 11.2711 22.1667 0.0711273 22.1667 0.0711273C22.1667 0.0711273 11.7833 -1.09554 10.85 6.02113Z" fill="#787878"/>
</svg>
