<svg width="7" height="7" viewBox="0 0 7 7" fill="none" xmlns="http://www.w3.org/2000/svg">
<path d="M6.97688 2.63668C6.94961 2.54717 6.89705 2.46823 6.82601 2.41011C6.75498 2.35199 6.66876 2.31737 6.57853 2.31075L4.66156 2.14993L3.92277 0.294048C3.8883 0.207058 3.8297 0.132662 3.75441 0.0803073C3.67912 0.0279522 3.59054 0 3.49992 0C3.40929 0 3.32071 0.0279522 3.24543 0.0803073C3.17014 0.132662 3.11154 0.207058 3.07707 0.294048L2.33828 2.14927L0.421308 2.31075C0.331003 2.31742 0.244721 2.35214 0.173679 2.41038C0.102637 2.46863 0.0501213 2.54771 0.0229599 2.63734C-0.00535333 2.72674 -0.00752992 2.82284 0.0167045 2.91352C0.0409389 3.0042 0.0904992 3.0854 0.159137 3.14689L1.62272 4.45492L1.17728 6.41152C1.15638 6.50308 1.16212 6.59903 1.19378 6.6872C1.22544 6.77538 1.2816 6.85182 1.35514 6.90686C1.42777 6.96271 1.51496 6.99448 1.60529 6.99802C1.69562 7.00155 1.78487 6.97669 1.86134 6.92667L3.49992 5.88117L5.14104 6.92832C5.21752 6.97834 5.30677 7.0032 5.39709 6.99967C5.48742 6.99613 5.57461 6.96436 5.64725 6.90851C5.72079 6.85347 5.77694 6.77703 5.8086 6.68885C5.84026 6.60068 5.846 6.50473 5.8251 6.41317L5.37966 4.45657L6.8407 3.14689C6.90946 3.08535 6.9591 3.00403 6.98334 2.91322C7.00758 2.82241 7.00533 2.72617 6.97688 2.63668ZM6.59062 2.84704L5.04145 4.234C5.01502 4.25767 4.99535 4.28841 4.98458 4.32288C4.9738 4.35735 4.97235 4.39422 4.98036 4.42949L5.4538 6.50299C5.45794 6.51864 5.45726 6.53525 5.45184 6.55047C5.44641 6.56569 5.43653 6.57877 5.42357 6.58786C5.41183 6.59728 5.39755 6.60266 5.38272 6.60325C5.36789 6.60385 5.35325 6.59962 5.34085 6.59116L3.59982 5.48094C3.56977 5.46178 3.53519 5.45164 3.49992 5.45164C3.46465 5.45164 3.43007 5.46178 3.40001 5.48094L1.65899 6.59083C1.64658 6.59929 1.63195 6.60352 1.61712 6.60292C1.60229 6.60233 1.58801 6.59695 1.57626 6.58753C1.56302 6.57867 1.55281 6.56569 1.5471 6.55045C1.54139 6.53521 1.54046 6.51848 1.54445 6.50266L2.01788 4.42916C2.0259 4.39389 2.02444 4.35702 2.01367 4.32255C2.0029 4.28808 1.98323 4.25734 1.9568 4.23367L0.407627 2.84671C0.395473 2.83644 0.386705 2.82249 0.382542 2.80681C0.37838 2.79112 0.379029 2.77448 0.384401 2.7592C0.388551 2.74413 0.397126 2.73079 0.408932 2.72102C0.420738 2.71125 0.435186 2.70555 0.450262 2.70471L2.484 2.53431C2.51905 2.53136 2.55262 2.51842 2.58103 2.49692C2.60944 2.47541 2.63158 2.44619 2.645 2.41246L3.42865 0.444302C3.43411 0.429732 3.44369 0.417215 3.45612 0.40839C3.46855 0.399565 3.48326 0.394843 3.49833 0.394843C3.51339 0.394843 3.5281 0.399565 3.54054 0.40839C3.55297 0.417215 3.56254 0.429732 3.56801 0.444302L4.35166 2.41246C4.36508 2.44619 4.38721 2.47541 4.41562 2.49692C4.44403 2.51842 4.47761 2.53136 4.51265 2.53431L6.54639 2.70471C6.56147 2.70555 6.57592 2.71125 6.58772 2.72102C6.59953 2.73079 6.6081 2.74413 6.61225 2.7592C6.61788 2.77436 6.61882 2.79096 6.61494 2.8067C6.61106 2.82244 6.60256 2.83654 6.59062 2.84704Z" fill="#1E1E1E"/>
</svg>
