<svg width="4" height="4" viewBox="0 0 4 4" fill="none" xmlns="http://www.w3.org/2000/svg">
<g clip-path="url(#clip0_240_101)">
<path d="M0.833333 0.833333H1.83333C1.925 0.833333 2 0.758333 2 0.666667C2 0.575 1.925 0.5 1.83333 0.5H0.833333C0.65 0.5 0.5 0.65 0.5 0.833333V3.16667C0.5 3.35 0.65 3.5 0.833333 3.5H1.83333C1.925 3.5 2 3.425 2 3.33333C2 3.24167 1.925 3.16667 1.83333 3.16667H0.833333V0.833333Z" fill="#787878"/>
<path d="M3.44167 1.94143L2.97667 1.47643C2.96508 1.46452 2.95019 1.45634 2.93393 1.45294C2.91766 1.44954 2.90075 1.45107 2.88536 1.45733C2.86997 1.4636 2.85679 1.47431 2.84752 1.4881C2.83826 1.5019 2.83332 1.51814 2.83333 1.53476V1.8331H1.66667C1.575 1.8331 1.5 1.9081 1.5 1.99976C1.5 2.09143 1.575 2.16643 1.66667 2.16643H2.83333V2.46476C2.83333 2.53976 2.92333 2.57643 2.975 2.5231L3.44 2.0581C3.47333 2.02643 3.47333 1.9731 3.44167 1.94143Z" fill="#787878"/>
</g>
<defs>
<clipPath id="clip0_240_101">
<rect width="4" height="4" fill="white"/>
</clipPath>
</defs>
</svg>
