<svg width="6" height="6" viewBox="0 0 6 6" fill="none" xmlns="http://www.w3.org/2000/svg">
<path d="M4.00875 0.753915C4.14337 0.619264 4.32416 0.540854 4.51446 0.534587C4.70476 0.528319 4.89032 0.594664 5.0335 0.720165L5.0695 0.753915L5.24625 0.930665C5.38083 1.06527 5.4592 1.24601 5.46547 1.43625C5.47173 1.62649 5.40543 1.81199 5.28 1.95516L5.24625 1.99116L2.44325 4.79441C2.40362 4.83404 2.35561 4.86428 2.30275 4.88292L2.26225 4.89466L1.14875 5.15167C1.10975 5.16068 1.06914 5.1602 1.03036 5.15027C0.991571 5.14035 0.955733 5.12126 0.925852 5.09461C0.895972 5.06796 0.872921 5.03453 0.858635 4.99713C0.84435 4.95973 0.839247 4.91945 0.843754 4.87966L0.848754 4.85142L1.1055 3.73766C1.11819 3.68304 1.14296 3.63195 1.178 3.58817L1.20575 3.55692L4.00875 0.753915ZM3.832 1.63766L1.5845 3.88516L1.4255 4.57467L2.115 4.41541L4.3625 2.16791L3.832 1.63766ZM4.716 1.10741C4.67296 1.06437 4.61568 1.03851 4.55492 1.03469C4.49417 1.03087 4.43411 1.04935 4.386 1.08666L4.3625 1.10741L4.1855 1.28416L4.716 1.81441L4.89275 1.63766C4.9358 1.59462 4.96166 1.53734 4.96548 1.47659C4.9693 1.41583 4.95082 1.35577 4.9135 1.30766L4.89275 1.28416L4.716 1.10741Z" fill="#787878"/>
</svg>
