<svg width="9" height="9" viewBox="0 0 9 9" fill="none" xmlns="http://www.w3.org/2000/svg">
<g clip-path="url(#clip0_240_104)">
<path d="M0.5625 4.5C0.5625 5.54429 0.977342 6.54581 1.71577 7.28423C2.45419 8.02266 3.45571 8.4375 4.5 8.4375C5.54429 8.4375 6.54581 8.02266 7.28423 7.28423C8.02266 6.54581 8.4375 5.54429 8.4375 4.5C8.4375 3.45571 8.02266 2.45419 7.28423 1.71577C6.54581 0.977342 5.54429 0.5625 4.5 0.5625C3.45571 0.5625 2.45419 0.977342 1.71577 1.71577C0.977342 2.45419 0.5625 3.45571 0.5625 4.5ZM9 4.5C9 5.69347 8.52589 6.83807 7.68198 7.68198C6.83807 8.52589 5.69347 9 4.5 9C3.30653 9 2.16193 8.52589 1.31802 7.68198C0.474106 6.83807 0 5.69347 0 4.5C0 3.30653 0.474106 2.16193 1.31802 1.31802C2.16193 0.474106 3.30653 0 4.5 0C5.69347 0 6.83807 0.474106 7.68198 1.31802C8.52589 2.16193 9 3.30653 9 4.5ZM3.09375 2.25112H4.75987C5.65031 2.25112 6.1875 2.871 6.1875 3.70462C6.1875 4.545 5.64356 5.15475 4.75312 5.15475H3.816V6.75H3.09375V2.25112ZM4.65188 4.54163C5.15419 4.54163 5.45006 4.23506 5.45006 3.70462C5.45006 3.17419 5.15419 2.871 4.65131 2.871H3.81262V4.54163H4.65188Z" fill="#344E41"/>
</g>
<defs>
<clipPath id="clip0_240_104">
<rect width="9" height="9" fill="white"/>
</clipPath>
</defs>
</svg>
