<svg width="12" height="10" viewBox="0 0 12 10" fill="none" xmlns="http://www.w3.org/2000/svg">
<path d="M2.14285 0.769226V9.23071H9.85713V0.769226H2.14285ZM1.71428 0H10.2857C10.3994 0 10.5084 0.0405216 10.5888 0.11265C10.6691 0.184779 10.7143 0.282607 10.7143 0.384613V9.61532C10.7143 9.71733 10.6691 9.81515 10.5888 9.88728C10.5084 9.95941 10.3994 9.99993 10.2857 9.99993H1.71428C1.60061 9.99993 1.4916 9.95941 1.41123 9.88728C1.33086 9.81515 1.28571 9.71733 1.28571 9.61532V0.384613C1.28571 0.282607 1.33086 0.184779 1.41123 0.11265C1.4916 0.0405216 1.60061 0 1.71428 0Z" fill="#344E41"/>
<path d="M0 9.23034H12V9.99957H0V9.23034ZM3.42857 1.53809H5.14286V2.69192H3.42857V1.53809Z" fill="#344E41"/>
<path d="M4.28573 9.23034H7.7143V8.46112C7.7143 8.05309 7.53369 7.66178 7.2122 7.37327C6.89071 7.08475 6.45467 6.92266 6.00002 6.92266C5.54536 6.92266 5.10933 7.08475 4.78783 7.37327C4.46634 7.66178 4.28573 8.05309 4.28573 8.46112V9.23034ZM6.00002 6.15344C6.682 6.15344 7.33606 6.39657 7.81829 6.82934C8.30053 7.26211 8.57145 7.84908 8.57145 8.46112V9.99957H3.42859V8.46112C3.42859 7.84908 3.69951 7.26211 4.18174 6.82934C4.66398 6.39657 5.31803 6.15344 6.00002 6.15344ZM3.42859 3.84576H5.14287V4.9996H3.42859V3.84576ZM6.85716 1.53809H8.57145V2.69192H6.85716V1.53809ZM6.85716 3.84576H8.57145V4.9996H6.85716V3.84576Z" fill="#344E41"/>
</svg>
