<svg width="5" height="5" viewBox="0 0 5 5" fill="none" xmlns="http://www.w3.org/2000/svg">
<path d="M3.00792 0C3.04672 1.04244e-06 3.08451 0.0105012 3.11586 0.0299883C3.14721 0.0494754 3.17049 0.0769438 3.18236 0.108438L3.38392 0.6425C3.46857 0.677812 3.54956 0.7175 3.62689 0.762187L4.27041 0.644063C4.30835 0.637155 4.34788 0.640695 4.38331 0.654173C4.41874 0.667651 4.44825 0.690372 4.46757 0.719063L4.97549 1.46875C4.99488 1.49742 5.0031 1.53061 4.99895 1.56352C4.9948 1.59643 4.9785 1.62737 4.9524 1.65187L4.51081 2.0675C4.51724 2.1472 4.51724 2.22718 4.51081 2.30687L4.9524 2.72312C4.9785 2.74763 4.9948 2.77857 4.99895 2.81148C5.0031 2.84439 4.99488 2.87758 4.97549 2.90625L4.46757 3.65625C4.44819 3.68488 4.41867 3.70754 4.38324 3.72096C4.34781 3.73438 4.30831 3.73787 4.27041 3.73094L3.62689 3.61281C3.54993 3.65719 3.46857 3.69719 3.38429 3.7325L3.18236 4.26656C3.17049 4.29806 3.14721 4.32552 3.11586 4.34501C3.08451 4.3645 3.04672 4.375 3.00792 4.375H1.99208C1.95328 4.375 1.91549 4.3645 1.88414 4.34501C1.85279 4.32552 1.82951 4.29806 1.81764 4.26656L1.61645 3.73281C1.53202 3.6976 1.45059 3.6574 1.37275 3.6125L0.729595 3.73094C0.691653 3.73785 0.652119 3.73431 0.616687 3.72083C0.581255 3.70735 0.551755 3.68463 0.532435 3.65594L0.0245114 2.90625C0.00511594 2.87758 -0.00309938 2.84439 0.00105002 2.81148C0.00519942 2.77857 0.0214991 2.74763 0.0475989 2.72312L0.489192 2.30687C0.482794 2.22739 0.482794 2.14761 0.489192 2.06813L0.0475989 1.65187C0.0214991 1.62737 0.00519942 1.59643 0.00105002 1.56352C-0.00309938 1.53061 0.00511594 1.49742 0.0245114 1.46875L0.532435 0.71875C0.551808 0.690117 0.581331 0.667461 0.616759 0.65404C0.652186 0.64062 0.691692 0.637126 0.729595 0.644063L1.37275 0.7625C1.45044 0.717813 1.53179 0.6775 1.61645 0.642188L1.818 0.108438C1.82984 0.0770452 1.85301 0.0496495 1.88421 0.0301719C1.91541 0.0106942 1.95304 0.000133021 1.99171 0H3.00792ZM2.8738 0.3125H2.1262L1.91805 0.864688L1.77769 0.923125C1.70869 0.951916 1.64208 0.984701 1.57833 1.02125L1.4486 1.09625L0.783099 0.97375L0.409302 1.52625L0.865555 1.95688L0.85456 2.08938C0.849293 2.15471 0.849293 2.22029 0.85456 2.28562L0.865555 2.41812L0.408569 2.84875L0.782733 3.40125L1.44824 3.27906L1.57797 3.35375C1.64172 3.3903 1.70833 3.42308 1.77733 3.45187L1.91768 3.51031L2.1262 4.0625H2.87453L3.08342 3.51L3.22341 3.45187C3.29233 3.42315 3.35883 3.39037 3.4224 3.35375L3.55176 3.27906L4.21763 3.40125L4.59143 2.84875L4.13481 2.41812L4.14581 2.28562C4.15109 2.22018 4.15109 2.15451 4.14581 2.08906L4.13481 1.95656L4.5918 1.52625L4.21763 0.97375L3.55176 1.09563L3.4224 1.02125C3.35883 0.984635 3.29233 0.951847 3.22341 0.923125L3.08342 0.865L2.8738 0.3125ZM2.5 1.25C2.79158 1.25 3.07122 1.34877 3.2774 1.52459C3.48357 1.7004 3.5994 1.93886 3.5994 2.1875C3.5994 2.43614 3.48357 2.6746 3.2774 2.85041C3.07122 3.02623 2.79158 3.125 2.5 3.125C2.20842 3.125 1.92878 3.02623 1.7226 2.85041C1.51643 2.6746 1.4006 2.43614 1.4006 2.1875C1.4006 1.93886 1.51643 1.7004 1.7226 1.52459C1.92878 1.34877 2.20842 1.25 2.5 1.25ZM2.5 1.5625C2.30561 1.5625 2.11919 1.62835 1.98174 1.74556C1.84428 1.86277 1.76706 2.02174 1.76706 2.1875C1.76706 2.35326 1.84428 2.51223 1.98174 2.62944C2.11919 2.74665 2.30561 2.8125 2.5 2.8125C2.69439 2.8125 2.88081 2.74665 3.01826 2.62944C3.15572 2.51223 3.23294 2.35326 3.23294 2.1875C3.23294 2.02174 3.15572 1.86277 3.01826 1.74556C2.88081 1.62835 2.69439 1.5625 2.5 1.5625Z" fill="#787878"/>
</svg>
