<svg width="10" height="12" viewBox="0 0 10 12" fill="none" xmlns="http://www.w3.org/2000/svg">
<path d="M7.14272 5.24979C7.14272 5.84655 6.91697 6.41886 6.51513 6.84083C6.1133 7.2628 5.56829 7.49986 5 7.49986C4.43171 7.49986 3.8867 7.2628 3.48486 6.84083C3.08303 6.41886 2.85728 5.84655 2.85728 5.24979C2.85728 4.65303 3.08303 4.08072 3.48486 3.65875C3.8867 3.23678 4.43171 2.99972 5 2.99972C5.56829 2.99972 6.1133 3.23678 6.51513 3.65875C6.91697 4.08072 7.14272 4.65303 7.14272 5.24979ZM6.42848 5.24979C6.42848 4.85195 6.27798 4.47041 6.01009 4.1891C5.7422 3.90778 5.37886 3.74974 5 3.74974C4.62114 3.74974 4.2578 3.90778 3.98991 4.1891C3.72202 4.47041 3.57152 4.85195 3.57152 5.24979C3.57152 5.64763 3.72202 6.02917 3.98991 6.31048C4.2578 6.5918 4.62114 6.74984 5 6.74984C5.37886 6.74984 5.7422 6.5918 6.01009 6.31048C6.27798 6.02917 6.42848 5.64763 6.42848 5.24979ZM8.53549 8.96615C9.47323 7.98093 10 6.64499 10 5.25204C10 3.85909 9.47323 2.52315 8.53549 1.53793C8.07122 1.05035 7.52004 0.663575 6.91342 0.399696C6.30679 0.135817 5.65661 0 5 0C4.34339 0 3.69321 0.135817 3.08658 0.399696C2.47996 0.663575 1.92878 1.05035 1.46451 1.53793C0.526772 2.52315 0 3.85909 0 5.25204C0 6.64499 0.526772 7.98093 1.46451 8.96615L2.55087 10.0904L4.01006 11.5792L4.10505 11.6677C4.65859 12.1388 5.46926 12.1087 5.99065 11.5792L7.72983 9.80168L8.53549 8.96615ZM1.96805 2.06669C2.36605 1.64829 2.83868 1.31636 3.35893 1.08989C3.87917 0.863427 4.43683 0.746862 5 0.746862C5.56317 0.746862 6.12083 0.863427 6.64107 1.08989C7.16132 1.31636 7.63395 1.64829 8.03195 2.06669C8.81352 2.88849 9.26286 3.99536 9.28628 5.15654C9.3097 6.31772 8.90539 7.44357 8.15766 8.29938L8.03195 8.43739L7.08844 9.41542L5.49568 11.0422L5.42854 11.1022C5.30483 11.1995 5.15442 11.252 4.99988 11.2518C4.84534 11.2517 4.69501 11.1989 4.57145 11.1015L4.50503 11.0415L2.37659 8.86265L1.96805 8.43739L1.84234 8.30013C1.09461 7.44432 0.690304 6.31847 0.713723 5.15729C0.737143 3.99611 1.18648 2.88849 1.96805 2.06669Z" fill="#344E41"/>
</svg>
