<svg width="17" height="22" viewBox="0 0 17 22" fill="none" xmlns="http://www.w3.org/2000/svg">
<path d="M14.25 0C12.5878 0.00273844 10.9652 0.507036 9.59427 1.44694C8.22336 2.38684 7.16801 3.71858 6.56625 5.268C6.08416 4.56878 5.43949 3.99707 4.68766 3.60202C3.93582 3.20696 3.09931 3.00037 2.25 3H0V5.25C0.00158802 6.6419 0.555222 7.97633 1.53944 8.96056C2.52367 9.94478 3.8581 10.4984 5.25 10.5H6V17.2875C4.27734 17.4559 2.66723 18.2194 1.44675 19.4468L2.50725 20.5072C3.13462 19.8799 3.89332 19.3995 4.72869 19.1006C5.56406 18.8017 6.45533 18.6918 7.33828 18.7789C8.22123 18.8659 9.0739 19.1476 9.83486 19.6038C10.5958 20.06 11.2462 20.6792 11.739 21.417L12.9847 20.5823C12.3699 19.6635 11.5592 18.8924 10.6109 18.3243C9.66253 17.7562 8.60013 17.4052 7.5 17.2965V10.5H8.25C10.4372 10.4974 12.5342 9.6274 14.0808 8.08078C15.6274 6.53417 16.4974 4.43724 16.5 2.25V0H14.25ZM5.25 9C4.2558 8.99881 3.30267 8.60334 2.59966 7.90034C1.89666 7.19733 1.50119 6.2442 1.5 5.25V4.5H2.25C3.24426 4.50099 4.19751 4.8964 4.90055 5.59945C5.6036 6.30249 5.99901 7.25574 6 8.25V9H5.25ZM15 2.25C14.998 4.0396 14.2862 5.75534 13.0208 7.02078C11.7553 8.28622 10.0396 8.99801 8.25 9H7.5V8.25C7.50199 6.4604 8.21378 4.74466 9.47922 3.47922C10.7447 2.21378 12.4604 1.50199 14.25 1.5H15V2.25Z" fill="#BBBBBB"/>
</svg>
